<svg xmlns="http://www.w3.org/2000/svg" xmlns:xlink="http://www.w3.org/1999/xlink" viewBox="0 0 256 256"><defs><style>.cls-1{isolation:isolate;}.cls-2{opacity:0.8;}.cls-2,.cls-4,.cls-6{mix-blend-mode:multiply;}.cls-3{fill:none;stroke:#fff;stroke-miterlimit:10;stroke-width:3px;}.cls-4{opacity:0.4;}.cls-5{fill:#fff;}.cls-6{opacity:0.6;}</style></defs><title>DocVasado 8Casas</title><g class="cls-1"><g id="Camada_1" data-name="Camada 1"><g id="Hexagono"><path class="cls-3" d="M188.21475,22.877s-45.79658-2.9955-61.1234-3.11159C112.737,19.65668,69.49009,21.9777,69.49009,21.9777a3.30182,3.30182,0,0,0-2.76127,1.447C62.03789,30.335,42.04536,59.86892,35.56235,70.79809,28.09707,83.3832,9.4794,119.0356,5.49155,126.69275a3.30374,3.30374,0,0,0-.05249,2.94813c3.62046,7.6106,20.176,42.28664,26.96238,54.30868C39.12859,195.8667,60.018,227.57022,64.763,234.74875a3.302,3.302,0,0,0,2.71772,1.4808s47.90289,3.04619,63.59617,3.24211c14.00766.17487,55.20758-1.75894,55.20758-1.75894a3.31041,3.31041,0,0,0,2.88813-1.62062s26.85827-39.70263,35.21989-53.79171c6.94992-11.7104,26.0263-49.40621,26.0263-49.40621a3.31038,3.31038,0,0,0,.03482-3.31894s-18.21-38.6266-25.51139-51.53912C217.398,64.6943,191.0713,24.55789,191.0713,24.55789A3.31041,3.31041,0,0,0,188.21475,22.877Z"/></g><g id="Doc_Vasado" data-name="Doc Vasado"></g></g></g></svg>
