<?xml version="1.0" encoding="UTF-8"?>
<!DOCTYPE svg PUBLIC "-//W3C//DTD SVG 1.1//EN" "http://www.w3.org/Graphics/SVG/1.1/DTD/svg11.dtd">
<!-- Creator: CorelDRAW -->
<svg xmlns="http://www.w3.org/2000/svg" xml:space="preserve" width="2812px" height="2580px" style="shape-rendering:geometricPrecision; text-rendering:geometricPrecision; image-rendering:optimizeQuality; fill-rule:evenodd; clip-rule:evenodd"
viewBox="0 0 3760.81 3450.43"
 xmlns:xlink="http://www.w3.org/1999/xlink">
 <defs>
  <style type="text/css">
   <![CDATA[
    .str0 {stroke:white;stroke-width:38.8769}
    .fil0 {fill:none}
    .fil1 {fill:white}
   ]]>
  </style>
 </defs>
 <g id="Camada_x0020_1">
  <metadata id="CorelCorpID_0Corel-Layer"/>
  <rect class="fil0" y="0.000612415" width="3760.81" height="3450.43"/>
  <g id="_173639680">
   <g id="Camada_1" data-name="Camada 1">
    <g id="Hexagono">
     <path id="_173651080" class="fil0 str0" d="M2660.74 341.887c0,0 -593.485,-38.8185 -792.109,-40.324 -186.02,-1.40917 -746.464,28.6699 -746.464,28.6699 -0.126383,-0.00157978 -0.257505,-0.00157978 -0.382308,-0.00157978 -14.177,0 -27.4409,7.0253 -35.4014,18.7536 -60.7901,89.5516 -319.878,472.286 -403.892,613.92 -96.7428,163.092 -338.012,625.117 -389.692,724.347 -3.17695,6.10113 -4.84362,12.9021 -4.84362,19.7836 0,6.37127 1.42655,12.6699 4.16589,18.4203 46.918,98.6275 261.464,548 349.41,703.795 87.1756,154.438 357.884,565.289 419.376,658.317 7.82625,11.8357 21.0317,19.0285 35.2213,19.1865 14.1896,0.157978 620.781,39.4756 824.153,42.0144 181.528,2.26541 715.445,-22.7947 715.445,-22.7947 0.172196,0.00315957 0.355451,0.00789892 0.533967,0.00789892 15.1422,0 29.1676,-7.98739 36.8927,-21.008 7.72514,-13.0206 348.061,-514.514 456.42,-697.096 90.0651,-151.757 337.279,-640.263 337.279,-640.263 3.92734,-6.62719 6.00634,-14.1896 6.00634,-21.8942 0,-7.39497 -1.91628,-14.6809 -5.5561,-21.117 -3.63982,-6.43604 -235.987,-500.569 -330.606,-667.904 -97.7665,-172.896 -438.938,-693.031 -438.938,-693.031 -7.55295,-13.3571 -21.6731,-21.6683 -37.0191,-21.7836l0 0.00157978z"/>
    </g>
   </g>
   <g>
    <path id="_173651248" class="fil1" d="M2169.81 1622.51c6.65405,-6.65089 6.65405,-19.9606 0,-29.9401 -9.9795,-6.65089 -23.286,-6.65089 -29.9401,0 -6.65089,9.9795 -6.65089,23.2892 0,29.9401 3.32861,6.65405 6.65405,6.65405 13.3097,6.65405 6.65089,0 9.9795,0 16.6304,-6.65405z"/>
    <path id="_173651584" class="fil1" d="M2372.73 2068.26c0,-33.2639 -29.9401,-63.204 -63.2056,-63.204l-332.655 0c-16.6335,0 -33.2639,6.65405 -43.245,19.959 -13.3049,9.98108 -19.959,26.6146 -19.959,43.245l0 46.5752c-23.286,9.97634 -39.9196,33.2655 -39.9196,59.8754l0 63.204c0,9.98108 9.9795,19.9606 19.959,19.9606l498.984 0c9.9795,0 19.9606,-9.9795 19.9606,-19.9606l0 -63.204c0,-26.6099 -16.6351,-49.8991 -39.9196,-59.8754l0 -46.5752zm-415.82 0c0,-9.9795 9.9795,-19.959 19.959,-19.959l332.655 0c9.9795,0 19.9606,9.9795 19.9606,19.959l0 39.9211 -372.575 0 0 -39.9211zm415.82 143.045l-459.065 0 0 -39.9196c0,-9.9795 9.9795,-19.9606 19.959,-19.9606l415.82 0c9.9795,0 19.9606,9.98108 19.9606,19.9606l0 39.9196 3.32545 0z"/>
    <path id="_173651872" class="fil1" d="M2113.26 1565.96c6.64931,-6.65563 6.64931,-19.9606 0,-29.9401l-116.43 -116.43c-9.9795,-6.65089 -23.286,-6.65089 -29.9401,0 -6.65405,9.98108 -6.65405,23.286 0,29.9401l116.43 116.43c6.65405,6.65405 19.959,6.65405 29.9401,0z"/>
    <path id="_173652160" class="fil1" d="M1484.55 2161.41c6.65089,-6.65563 379.226,-375.9 392.534,-392.534 23.286,23.2844 63.2056,23.2844 86.49,0l13.3049 -13.3065 29.9401 33.2655c-9.9795,23.2844 -3.32545,49.8991 13.3049,66.5295l26.6146 26.6146c26.6115,23.286 63.2056,23.286 86.49,0l196.266 -196.269c23.2844,-23.2844 23.2844,-59.8754 0,-83.1646l-33.2655 -29.9353c-19.9606,-16.6335 -46.5705,-23.2892 -66.531,-13.3097l-256.145 -256.145c9.98108,-19.959 3.32545,-46.5689 -13.3081,-63.204l-29.9353 -29.9353c-23.2892,-23.2892 -59.8801,-23.2892 -83.1662,0l-192.939 196.264c-23.2844,23.286 -23.2844,59.8801 0,86.49l26.6099 26.6146c16.6351,16.6304 43.245,23.2844 66.531,13.3049l33.2687 29.9401 -16.6351 9.9795c-23.2844,26.6115 -23.2844,63.2056 0,86.49l-392.534 392.534c-13.3049,13.3065 -23.2844,33.2655 -23.2844,53.2261 0,23.2844 9.9795,43.245 23.2844,56.55 16.6351,16.6304 36.5941,23.2844 56.55,23.2844 23.2892,0 43.2498,-6.65405 56.5547,-23.2844zm69.8549 -236.186l56.5547 56.55 -26.6146 26.6146 -56.55 -56.5531 26.6099 -26.6115zm296.064 -182.96l-209.574 209.571 -56.55 -56.55 206.249 -209.576 59.8754 56.5547zm-69.8549 -239.514l166.326 -166.329 252.819 252.819 -166.329 166.329 -252.816 -252.819zm489.005 99.795l29.9353 26.6146c3.32861,9.98108 3.32861,19.9606 0,29.9401l-196.266 196.264c-9.9795,6.65563 -19.959,6.65563 -29.9385,0l-26.6115 -29.9385c-6.65405,-6.65089 -6.65405,-19.9606 0,-26.6115l0 0 192.941 -196.269 0 0c9.9795,-6.64931 19.959,-6.64931 29.9401,0zm-588.805 -139.715c-6.64931,-9.9795 -6.64931,-19.959 0,-29.9401l196.269 -192.939c9.98108,-6.65089 19.9606,-6.65089 29.9369,0l26.613 26.6146c6.65563,9.9795 6.65563,19.959 0,29.9401l0 0 -196.264 196.264 0 0c-3.32861,3.32545 -6.65405,3.32545 -9.9795,3.32545 -16.6351,0 -19.9606,-9.9795 -46.5752,-33.2655zm266.126 266.124l-13.3065 13.3097c-6.65405,6.65089 -19.959,6.65089 -26.613,0l-116.427 -113.105c-3.32861,-6.65405 -3.32861,-19.959 0,-26.6146l13.3049 -13.3049 143.042 139.715zm-545.555 349.29l96.4695 -96.4711 56.55 56.5515 -96.4695 96.4695c-16.6304,16.6335 -43.245,16.6335 -56.55,0 -16.6351,-13.3049 -16.6351,-39.9164 0,-56.55z"/>
   </g>
  </g>
 </g>
</svg>
