<?xml version="1.0" encoding="UTF-8"?>
<!DOCTYPE svg PUBLIC "-//W3C//DTD SVG 1.1//EN" "http://www.w3.org/Graphics/SVG/1.1/DTD/svg11.dtd">
<!-- Creator: CorelDRAW -->
<svg xmlns="http://www.w3.org/2000/svg" xml:space="preserve" width="100px" height="100px" style="shape-rendering:geometricPrecision; text-rendering:geometricPrecision; image-rendering:optimizeQuality; fill-rule:evenodd; clip-rule:evenodd"
viewBox="0 0 73.2575 73.2575"
 xmlns:xlink="http://www.w3.org/1999/xlink">
 <defs>
  <style type="text/css">
   <![CDATA[
    .str0 {stroke:#008ACB;stroke-width:2.86606}
    .fil1 {fill:#008ACB}
    .fil0 {fill:#008ACB;fill-rule:nonzero}
   ]]>
  </style>
 </defs>
 <g id="Camada_x0020_1">
  <metadata id="CorelCorpID_0Corel-Layer"/>
  <path class="fil0" d="M36.6288 0c10.1146,0 19.2719,4.09998 25.9003,10.7285 6.62848,6.62835 10.7285,15.7857 10.7285,25.9003 0,10.1146 -4.09998,19.2718 -10.7285,25.9003 -6.62835,6.62848 -15.7857,10.7285 -25.9003,10.7285 -10.1146,0 -19.2719,-4.09998 -25.9003,-10.7285 -6.62848,-6.62848 -10.7285,-15.7857 -10.7285,-25.9003 0,-10.1146 4.09998,-19.2719 10.7285,-25.9003 6.62835,-6.62848 15.7857,-10.7285 25.9003,-10.7285zm23.8739 12.7549c-6.10949,-6.10962 -14.5505,-9.8887 -23.8739,-9.8887 -9.32339,0 -17.7644,3.77908 -23.8739,9.8887 -6.10962,6.10949 -9.8887,14.5505 -9.8887,23.8739 0,9.32339 3.77908,17.7642 9.8887,23.8739 6.10949,6.10962 14.5505,9.8887 23.8739,9.8887 9.32339,0 17.7644,-3.77908 23.8739,-9.8887 6.10962,-6.10962 9.8887,-14.5505 9.8887,-23.8739 0,-9.32339 -3.77908,-17.7644 -9.8887,-23.8739z"/>
  <path class="fil1 str0" d="M65.2946 55.4283c-2.98914,4.18772 -6.8737,7.69126 -11.373,10.2347l-34.5858 0c-4.49942,-2.5434 -8.38357,-6.04734 -11.373,-10.2347 2.45281,-5.90435 7.89097,-10.7794 14.9469,-13.5693 3.72722,3.07878 8.50705,4.92851 13.719,4.92851 5.2119,0 9.99174,-1.84973 13.719,-4.92851 7.05595,2.78996 12.4941,7.66499 14.9469,13.5693z"/>
  <path class="fil1" d="M36.6288 6.3895c9.20993,0 16.676,7.46608 16.676,16.676 0,9.20993 -7.46608,16.676 -16.676,16.676 -9.20993,0 -16.676,-7.46608 -16.676,-16.676 0,-9.20993 7.46608,-16.676 16.676,-16.676z"/>
 </g>
</svg>
