<svg id="Camada_1" data-name="Camada 1" xmlns="http://www.w3.org/2000/svg" viewBox="0 0 256 256"><defs><style>.cls-1{fill:none;stroke:#fff;stroke-miterlimit:10;stroke-width:2px;}.cls-2{fill:#fff;}.cls-3{fill:#595959;}</style></defs><title>Prancheta 8Casas</title><path class="cls-1" d="M188.21475,21.25473s-45.79658-2.9955-61.1234-3.11159c-14.35435-.10873-57.60126,2.21229-57.60126,2.21229a3.30184,3.30184,0,0,0-2.76127,1.447c-4.69093,6.91032-24.68346,36.44426-31.16647,47.37343-7.46528,12.58511-26.083,48.23751-30.0708,55.89466a3.30374,3.30374,0,0,0-.05249,2.94813c3.62046,7.6106,20.176,42.28664,26.96238,54.30868C39.12859,194.24443,60.018,225.948,64.763,233.12647a3.302,3.302,0,0,0,2.71772,1.48081s47.90289,3.04619,63.59617,3.2421c14.00766.17488,55.20758-1.75893,55.20758-1.75893a3.31041,3.31041,0,0,0,2.88813-1.62062s26.85827-39.70263,35.21989-53.79171c6.94992-11.7104,26.0263-49.40621,26.0263-49.40621a3.3104,3.3104,0,0,0,.03482-3.31895s-18.21-38.62659-25.51139-51.53911C217.398,63.072,191.0713,22.93562,191.0713,22.93562A3.31041,3.31041,0,0,0,188.21475,21.25473Z"/><path class="cls-2" d="M161.52621,83.70721H94.47379A13.90108,13.90108,0,0,0,80.57267,97.60833v78.3642a13.90108,13.90108,0,0,0,13.90112,13.90112h67.05242a13.90108,13.90108,0,0,0,13.90112-13.90112V97.60833A13.90108,13.90108,0,0,0,161.52621,83.70721ZM109.384,170.15862s-1.06495,2.10431-1.45284,2.758c-.46679.78652-1.96615,3.00283-1.96615,3.00283a.1846.1846,0,0,1-.16121.0905s-2.29989.1079-3.08188.09814c-.876-.01089-3.55023-.181-3.55023-.181a.18427.18427,0,0,1-.15173-.08259c-.26486-.40075-1.43092-2.17063-1.80651-2.83582-.37883-.67113-1.30308-2.60689-1.50516-3.03168a.1842.1842,0,0,1,.003-.1646c.22258-.42748,1.26194-2.41782,1.67867-3.12034.36187-.61,1.47787-2.25874,1.73976-2.6445a.18421.18421,0,0,1,.15414-.08075s2.41429-.12967,3.21551-.12359c.85567.00651,3.41221.17379,3.41221.17379a.18453.18453,0,0,1,.15951.09376s1.46967,2.24063,1.89079,2.98543c.40754.72077,1.42413,2.87712,1.42413,2.87712A.18491.18491,0,0,1,109.384,170.15862Zm0-16.49061s-1.06495,2.10431-1.45284,2.758c-.46679.78652-1.96615,3.00283-1.96615,3.00283a.1846.1846,0,0,1-.16121.0905s-2.29989.108-3.08188.09828c-.876-.011-3.55023-.181-3.55023-.181a.18476.18476,0,0,1-.15173-.08273c-.26486-.40075-1.43092-2.17049-1.80651-2.83582-.37883-.67113-1.30308-2.60689-1.50516-3.03168a.18422.18422,0,0,1,.003-.1646c.22258-.42748,1.26194-2.41768,1.67867-3.1202.36187-.61019,1.47787-2.25888,1.73976-2.64464a.18455.18455,0,0,1,.15414-.08075s2.41429-.12953,3.21551-.12345c.85567.00651,3.41221.17365,3.41221.17365a.185.185,0,0,1,.15951.0939s1.46967,2.24049,1.89079,2.98529c.40754.72091,1.42413,2.87712,1.42413,2.87712A.1849.1849,0,0,1,109.384,153.668Zm0-16.49047s-1.06495,2.10431-1.45284,2.758c-.46679.78652-1.96615,3.00283-1.96615,3.00283a.1846.1846,0,0,1-.16121.0905s-2.29989.1079-3.08188.09814c-.876-.01089-3.55023-.181-3.55023-.181a.18427.18427,0,0,1-.15173-.08259c-.26486-.40075-1.43092-2.17063-1.80651-2.83582-.37883-.67113-1.30308-2.60689-1.50516-3.03182a.18391.18391,0,0,1,.003-.16446c.22258-.42748,1.26194-2.41782,1.67867-3.12034.36187-.61,1.47787-2.25874,1.73976-2.6445a.18468.18468,0,0,1,.15414-.08089s2.41429-.12953,3.21551-.12345c.85567.00651,3.41221.17379,3.41221.17379a.18453.18453,0,0,1,.15951.09376s1.46967,2.24063,1.89079,2.98543c.40754.72077,1.42413,2.87712,1.42413,2.87712A.18491.18491,0,0,1,109.384,137.17754Zm2.538-21.56028-10.28542,9.23418a1.65256,1.65256,0,0,1-2.33354-.12571l-.16912-.18822c-.0133-.01485-.01641-.03422-.02913-.04935a1.526,1.526,0,0,1-.12968-.09659l-3.6198-4.03186a1.65242,1.65242,0,0,1,.12558-2.33354l.18835-.16913a1.65258,1.65258,0,0,1,2.33354.12571l2.65935,2.96211,8.88306-7.97521a1.65256,1.65256,0,0,1,2.33354.12571l.169.18836A1.65257,1.65257,0,0,1,111.922,115.61726Zm0-14.17362-10.28542,9.23418a1.65255,1.65255,0,0,1-2.33354-.12571l-.16912-.18822c-.0133-.01484-.01641-.03422-.02913-.04935a1.5259,1.5259,0,0,1-.12968-.09658l-3.6198-4.03187a1.65242,1.65242,0,0,1,.12558-2.33354l.18835-.16912a1.65256,1.65256,0,0,1,2.33354.12571l2.65935,2.9621,8.88306-7.97521a1.65257,1.65257,0,0,1,2.33354.12571l.169.18836A1.65257,1.65257,0,0,1,111.922,101.44364Zm50.83078,69.33294a1.65252,1.65252,0,0,1-1.65251,1.65251H122.08866a1.65251,1.65251,0,0,1-1.65251-1.65251v-1.60132a1.6525,1.6525,0,0,1,1.65251-1.65251h39.01163a1.65251,1.65251,0,0,1,1.65251,1.65251Zm0-16.49047a1.65239,1.65239,0,0,1-1.65251,1.65237H122.08866a1.65239,1.65239,0,0,1-1.65251-1.65237v-1.60132a1.6525,1.6525,0,0,1,1.65251-1.65251h39.01163a1.65251,1.65251,0,0,1,1.65251,1.65251Zm0-16.49061a1.65251,1.65251,0,0,1-1.65251,1.65251H122.08866a1.6525,1.6525,0,0,1-1.65251-1.65251v-1.60132a1.6525,1.6525,0,0,1,1.65251-1.65251h39.01163a1.65251,1.65251,0,0,1,1.65251,1.65251Zm0-14.17362a1.65248,1.65248,0,0,1-1.65251,1.65237H122.08866a1.65248,1.65248,0,0,1-1.65251-1.65237v-1.60146a1.65248,1.65248,0,0,1,1.65251-1.65237h39.01163a1.65248,1.65248,0,0,1,1.65251,1.65237Zm0-14.17375a1.65252,1.65252,0,0,1-1.65251,1.65251H122.08866a1.65251,1.65251,0,0,1-1.65251-1.65251V107.8468a1.65251,1.65251,0,0,1,1.65251-1.65251h39.01163a1.65252,1.65252,0,0,1,1.65251,1.65251Z"/><path class="cls-3" d="M156.22321,81.51958c-.3582-.5658-1.60826-2.26786-1.60826-2.26786a.16109.16109,0,0,0-.1357-.07131s-.22882-.01324-.54822-.0307a1.75486,1.75486,0,0,0-.56807-.10143H135.329c.268-.519.48657-.95047.48657-.95047a.174.174,0,0,0,.00181-.17444s-.95708-2.03019-1.34088-2.7089c-.39651-.7012-1.78023-2.81079-1.78023-2.81079a.174.174,0,0,0-.15018-.08836s-2.40708-.15745-3.21264-.16354c-.75447-.00574-3.02754.11625-3.02754.11625a.17382.17382,0,0,0-.14514.07606c-.24651.36323-1.29735,1.91552-1.63807,2.49-.39241.66147-1.37095,2.53534-1.58054,2.93783a.17365.17365,0,0,0-.00276.15492c.083.17444.29714.62269.53972,1.12145h-14.2341c-.59386-.02625-1.19545-.04922-1.52657-.05127-.40671-.00252-1.24889.02514-1.94424.05127H105.475a1.74584,1.74584,0,0,0-.18733.01887c-.34694.01394-.59673.02472-.59673.02472a.18777.18777,0,0,0-.14514.062c-.24651.29631-1.29735,1.5626-1.63808,2.03125-.39241.5396-1.37094,2.06816-1.58054,2.39653a.11865.11865,0,0,0-.00275.12639c.19032.32631,1.06045,1.813,1.41712,2.3285.35362.51094,1.45157,1.87029,1.70095,2.17809a.18621.18621,0,0,0,.14285.06345s.17086.00885.43548.022a1.7561,1.7561,0,0,0,.45417.06609h.958c.58935.02561,1.172.04764,1.49493.05092.47011.00481,1.51849-.02713,2.21817-.05092H153.363a1.76494,1.76494,0,0,0,.40506-.0508c.35907-.01336.61958-.02426.61958-.02426a.16193.16193,0,0,0,.13717-.06873s1.27532-1.68372,1.67236-2.28121c.33-.4966,1.23583-2.09518,1.23583-2.09518a.12752.12752,0,0,0,.00164-.14075S156.57,82.06715,156.22321,81.51958ZM125.482,77.92648a.10508.10508,0,0,1,.0017-.09381c.12686-.24364.71919-1.37792.95668-1.7783.20625-.3477.8423-1.28733.99154-1.50717a.105.105,0,0,1,.08789-.046s1.37587-.07389,1.83256-.07043c.48763.00369,1.94465.099,1.94465.099a.1054.1054,0,0,1,.09088.0535s.83755,1.2769,1.07756,1.70136c.23227.41081.81165,1.63972.81165,1.63972a.10527.10527,0,0,1-.00111.10559s-.27739.54763-.52571,1.01832H126.0264C125.80292,78.599,125.55652,78.08316,125.482,77.92648Zm29.65662,5.8647-.00211.00369v-.09474l.00311.00586A.0771.0771,0,0,1,155.13861,83.79118Z"/></svg>