<?xml version="1.0" encoding="UTF-8"?>
<!DOCTYPE svg PUBLIC "-//W3C//DTD SVG 1.1//EN" "http://www.w3.org/Graphics/SVG/1.1/DTD/svg11.dtd">
<!-- Creator: CorelDRAW -->
<svg xmlns="http://www.w3.org/2000/svg" xml:space="preserve" width="1902px" height="443px" style="shape-rendering:geometricPrecision; text-rendering:geometricPrecision; image-rendering:optimizeQuality; fill-rule:evenodd; clip-rule:evenodd"
viewBox="0 0 832.511 194.074"
 xmlns:xlink="http://www.w3.org/1999/xlink">
 <defs>
  <style type="text/css">
   <![CDATA[
    .fil2 {fill:#848688;fill-rule:nonzero}
    .fil0 {fill:#00A1D5;fill-rule:nonzero}
    .fil1 {fill:#5B9F91;fill-rule:nonzero}
   ]]>
  </style>
 </defs>
 <g id="Camada_x0020_1">
  <metadata id="CorelCorpID_0Corel-Layer"/>
  <polygon class="fil0" points="807.838,56.9193 808.313,81.6305 779.94,81.5752 779.464,56.864 754.791,56.8159 754.248,28.6036 778.921,28.6522 778.446,3.94044 806.82,3.99576 807.295,28.7075 831.968,28.7556 832.511,56.9679 "/>
  <path class="fil1" d="M-0 136.935l0 -132.863 93.5103 0 0 35.1248 -56.6649 0 0 11.1989 39.3858 0 0 32.0705 -39.3858 0 0 20.1075 56.6649 0 0 34.3613 -93.5103 0zm241.907 -102.32l0 102.065 -36.8448 0 0 -50.9057 -26.1728 37.9248 -26.1728 -37.9248 0 50.9057 -36.8454 0 0 -102.065 -3.303 -25.4526 28.4599 -9.163 37.8612 60.8318 37.8612 -60.8318 28.4599 9.163 -3.30352 25.4526zm31.2552 102.32l0 -132.863 93.5103 0 0 35.1248 -56.6654 0 0 11.1989 39.3863 0 0 32.0705 -39.3863 0 0 20.1075 56.6654 0 0 34.3613 -93.5103 0zm186.004 -0.254355l-33.2875 -49.3786 0 49.3786 -36.8454 0 0 -101.556 -3.303 -25.9618 28.205 -9.163 40.9114 65.6677 0 -61.3405 37.0987 0 0 132.354 -32.7793 0zm164.66 -37.6699c0,9.163 -1.60937,16.3744 -4.8281,21.6347 -3.21873,5.2603 -6.98806,9.163 -11.3074,11.7081 -4.31991,2.54511 -8.63981,4.15706 -12.9592,4.83586 -4.31991,0.678798 -7.58103,1.01846 -9.78338,1.01846 -5.7597,0 -11.2651,-0.848369 -16.5171,-2.54562 -5.25099,-1.69674 -10.1639,-3.9027 -14.7376,-6.61738l-2.79481 7.89019 -29.7306 0 0 -132.863 63.7802 0c7.28429,0.339658 13.7218,2.03639 19.3119,5.09073 2.37192,1.3576 4.74332,3.01194 7.11472,4.96303 2.37192,1.95161 4.48948,4.41193 6.3532,7.38148 1.86321,2.96955 3.34539,6.44781 4.44657,10.4353 1.10117,3.988 1.65176,8.52711 1.65176,13.6173l0 53.4508zm-36.3372 -53.4508c0,-1.18751 -0.253839,-2.20597 -0.762032,-3.05433 -0.338624,-0.848369 -0.973995,-1.61195 -1.9056,-2.29075 -0.931603,-0.678798 -2.15995,-1.01794 -3.68454,-1.01794l-23.1236 0 0 54.2139c5.42108,3.9027 9.99483,6.5755 13.7218,8.01788 3.72693,1.44238 6.77609,2.16357 9.14749,2.16357 1.69415,0 3.00729,-0.339658 3.93889,-1.01846 0.931603,-0.678798 1.56697,-1.44238 1.9056,-2.29075 0.508194,-1.01794 0.762032,-2.20597 0.762032,-3.56304l0 -51.1601zm141.79 97.4838l-8.89314 -29.0162 -38.6238 0 -9.40236 29.0162 -34.5582 -12.7266 45.2308 -126.245 35.829 0 44.7221 126.245 -34.3044 12.7266zm-28.4594 -83.2301l-8.6393 25.1977 18.0417 0 -9.40236 -25.1977z"/>
  <g id="_205800384">
   <path id="_205800480" class="fil2" d="M-0 185.883l0 -28.6481 8.57519 0c3.24872,0 5.36887,0.146823 6.35527,0.433748 1.51734,0.426511 2.79274,1.3607 3.81637,2.80101 1.02311,1.44083 1.53492,3.30197 1.53492,5.57618 0,1.76136 -0.296231,3.242 -0.887659,4.43571 -0.591945,1.20095 -1.33795,2.14134 -2.24991,2.82841 -0.906271,0.680349 -1.83115,1.13374 -2.76844,1.35398 -1.27591,0.273484 -3.12516,0.413586 -5.54774,0.413586l-3.48343 0 0 10.8055 -5.34457 0zm5.34457 -23.7988l0 8.12387 2.9225 0c2.10826,0 3.51962,-0.146823 4.22892,-0.446673 0.708266,-0.300367 1.26299,-0.767202 1.67037,-1.40723 0.400662,-0.640542 0.603836,-1.38086 0.603836,-2.2282 0,-1.04017 -0.283307,-1.90095 -0.850437,-2.58129 -0.560926,-0.673628 -1.28263,-1.10066 -2.14548,-1.26712 -0.641059,-0.133382 -1.92266,-0.193352 -3.84635,-0.193352l-2.58336 0zm19.2891 23.7988l0 -28.6481 5.07367 0 0 28.6481 -5.07367 0zm14.0676 -14.4207l-4.60476 -0.900584c0.518017,-2.00744 1.40568,-3.4886 2.6697,-4.45536 1.26971,-0.960554 3.14377,-1.44755 5.63408,-1.44755 2.26904,0 3.95182,0.293646 5.06126,0.873701 1.10376,0.580055 1.88647,1.31417 2.33624,2.20803 0.450292,0.893346 0.677764,2.52753 0.677764,4.91547l-0.0553171 6.41007c0,1.82081 0.0806493,3.16859 0.246601,4.03557 0.160782,0.860259 0.468903,1.79445 0.912474,2.78137l-5.02352 0c-0.129763,-0.367058 -0.296231,-0.907305 -0.487515,-1.62074 -0.0796153,-0.326733 -0.141136,-0.540247 -0.178876,-0.647262 -0.869048,0.914025 -1.79341,1.59437 -2.78033,2.05449 -0.986403,0.453394 -2.04001,0.680349 -3.16187,0.680349 -1.97281,0 -3.53254,-0.580055 -4.6668,-1.73396 -1.14098,-1.16063 -1.70811,-2.62834 -1.70811,-4.40262 0,-1.16735 0.259008,-2.21424 0.777025,-3.13498 0.518017,-0.920229 1.24541,-1.62074 2.1765,-2.10774 0.930569,-0.486998 2.28093,-0.913508 4.03763,-1.28057 2.36675,-0.480277 4.01334,-0.933671 4.92581,-1.34726l0 -0.546968c0,-1.06033 -0.240914,-1.80737 -0.721191,-2.26128 -0.480794,-0.446673 -1.38758,-0.673628 -2.72553,-0.673628 -0.905754,0 -1.60885,0.193352 -2.11394,0.580572 -0.505609,0.379982 -0.912991,1.05361 -1.22732,2.02089zm6.78798 4.45536c-0.647262,0.233676 -1.67761,0.513881 -3.08897,0.840614 -1.40568,0.326733 -2.32384,0.647262 -2.7612,0.953833 -0.660187,0.513881 -0.993124,1.15391 -0.993124,1.93455 0,0.773406 0.265212,1.43411 0.795636,1.994 0.529907,0.560409 1.20198,0.840614 2.02192,0.840614 0.918161,0 1.78721,-0.326733 2.62007,-0.973995 0.616243,-0.493201 1.01742,-1.10066 1.20819,-1.82081 0.135966,-0.466835 0.197487,-1.3607 0.197487,-2.67487l0 -1.09394zm18.7835 -10.7853l0 4.37574 -3.46533 0 0 8.36426c0,1.69415 0.0315359,2.68107 0.0992607,2.96128 0.0672077,0.280205 0.215582,0.50716 0.449258,0.693791 0.23471,0.17991 0.52422,0.273484 0.857157,0.273484 0.47459,0 1.15287,-0.17991 2.04725,-0.526805l0.431164 4.25528c-1.18337,0.546968 -2.51564,0.820452 -4.01334,0.820452 -0.911957,0 -1.7381,-0.166468 -2.47221,-0.493718 -0.733081,-0.333454 -1.26919,-0.766685 -1.61454,-1.29401 -0.344827,-0.526805 -0.579538,-1.24024 -0.715504,-2.14083 -0.104431,-0.633821 -0.159748,-1.92783 -0.159748,-3.86858l0 -9.04461 -2.33056 0 0 -4.37574 2.33056 0 0 -4.12862 5.09125 -3.20167 0 7.3303 3.46533 0zm7.31634 6.32994l-4.60425 -0.900584c0.5175,-2.00744 1.40516,-3.4886 2.66866,-4.45536 1.27023,-0.960554 3.14429,-1.44755 5.63511,-1.44755 2.26852,0 3.9513,0.293646 5.06074,0.873701 1.10376,0.580055 1.88647,1.31417 2.33676,2.20803 0.449775,0.893346 0.677764,2.52753 0.677764,4.91547l-0.0553171 6.41007c0,1.82081 0.0801323,3.16859 0.246601,4.03557 0.160265,0.860259 0.468386,1.79445 0.912474,2.78137l-5.02455 0c-0.129246,-0.367058 -0.295714,-0.907305 -0.486998,-1.62074 -0.0796153,-0.326733 -0.141653,-0.540247 -0.178876,-0.647262 -0.869048,0.914025 -1.79341,1.59437 -2.77982,2.05449 -0.986403,0.453394 -2.04053,0.680349 -3.16238,0.680349 -1.97281,0 -3.53254,-0.580055 -4.6668,-1.73396 -1.14046,-1.16063 -1.70759,-2.62834 -1.70759,-4.40262 0,-1.16735 0.259008,-2.21424 0.777025,-3.13498 0.5175,-0.920229 1.24489,-1.62074 2.17598,-2.10774 0.930569,-0.486998 2.28041,-0.913508 4.03815,-1.28057 2.36675,-0.480277 4.01282,-0.933671 4.92529,-1.34726l0 -0.546968c0,-1.06033 -0.240914,-1.80737 -0.721708,-2.26128 -0.480277,-0.446673 -1.38706,-0.673628 -2.7245,-0.673628 -0.905754,0 -1.60885,0.193352 -2.11446,0.580572 -0.505609,0.379982 -0.912991,1.05361 -1.22732,2.02089zm6.78798 4.45536c-0.647262,0.233676 -1.67709,0.513881 -3.08845,0.840614 -1.40568,0.326733 -2.32384,0.647262 -2.76224,0.953833 -0.65967,0.513881 -0.992607,1.15391 -0.992607,1.93455 0,0.773406 0.265212,1.43411 0.795636,1.994 0.530424,0.560409 1.2025,0.840614 2.02244,0.840614 0.918161,0 1.78721,-0.326733 2.61955,-0.973995 0.616243,-0.493201 1.0169,-1.10066 1.20819,-1.82081 0.135966,-0.466835 0.197487,-1.3607 0.197487,-2.67487l0 -1.09394zm7.76715 -10.7853l2.81704 0 0 -1.56749c0,-1.7412 0.172672,-3.04813 0.518017,-3.90891 0.345344,-0.860259 0.973995,-1.56077 1.89216,-2.10102 0.924882,-0.540247 2.09016,-0.80701 3.49532,-0.80701 1.44859,0 2.86047,0.233676 4.24753,0.700512l-0.683968 3.83498c-0.807527,-0.212997 -1.58455,-0.313292 -2.33004,-0.313292 -0.739802,0 -1.26402,0.17991 -1.58455,0.553688 -0.320529,0.373262 -0.47459,1.08721 -0.47459,2.14083l0 1.46771 3.79103 0 0 4.31525 -3.79103 0 0 16.4354 -5.07987 0 0 -16.4354 -2.81704 0 0 -4.31525zm13.3645 10.0786c0,-1.82081 0.419273,-3.58838 1.24541,-5.29597 0.832342,-1.70087 2.01003,-3.00832 3.53254,-3.90219 1.52251,-0.900584 3.22339,-1.35398 5.10365,-1.35398 2.89769,0 5.27684,1.02052 7.13281,3.06157 1.85545,2.04105 2.78033,4.61562 2.78033,7.73044 0,3.13498 -0.93729,5.73644 -2.80515,7.80437 -1.87406,2.06741 -4.2284,3.09466 -7.07077,3.09466 -1.76291,0 -3.4338,-0.427028 -5.02972,-1.28729 -1.59696,-0.860259 -2.81135,-2.12118 -3.64369,-3.78173 -0.826138,-1.66107 -1.24541,-3.68195 -1.24541,-6.06989zm5.20343 0.293129c0,2.06121 0.449775,3.63542 1.35553,4.72936 0.900584,1.09394 2.01572,1.6409 3.34126,1.6409 1.32554,0 2.43551,-0.546968 3.32937,-1.6409 0.900067,-1.09394 1.34984,-2.68159 1.34984,-4.76917 0,-2.02761 -0.449775,-3.5951 -1.34984,-4.68903 -0.893863,-1.09394 -2.00382,-1.6409 -3.32937,-1.6409 -1.32554,0 -2.44068,0.546968 -3.34126,1.6409 -0.905754,1.09394 -1.35553,2.67487 -1.35553,4.72884zm23.425 10.3789l-5.07315 0 0 -20.7507 4.7092 0 0 2.94835c0.807527,-1.3943 1.53544,-2.31453 2.1765,-2.755 0.647262,-0.439952 1.37517,-0.666908 2.19459,-0.666908 1.15856,0 2.26852,0.346895 3.34126,1.04069l-1.57163 4.78209c-0.850954,-0.593496 -1.64607,-0.893863 -2.37967,-0.893863 -0.714987,0 -1.31314,0.206793 -1.80685,0.633821 -0.499405,0.420307 -0.881455,1.18751 -1.16476,2.29437 -0.283823,1.10738 -0.425477,3.42863 -0.425477,6.95704l0 6.41007zm9.15421 -20.7507l4.67921 0 0 2.8279c1.67089,-2.2008 3.66799,-3.30145 5.97942,-3.30145 1.22732,0 2.29385,0.273484 3.19392,0.820452 0.905754,0.546968 1.64504,1.37414 2.22458,2.481 0.838546,-1.10686 1.75102,-1.93403 2.72502,-2.481 0.973478,-0.546968 2.01572,-0.820452 3.12568,-0.820452 1.40568,0 2.60146,0.313292 3.57494,0.933671 0.974512,0.613658 1.70139,1.52768 2.1827,2.7214 0.351031,0.887142 0.523703,2.32125 0.523703,4.30233l0 13.2668 -5.07315 0 0 -11.8596c0,-2.06069 -0.172672,-3.3883 -0.52422,-3.98852 -0.467869,-0.780644 -1.18958,-1.17407 -2.16357,-1.17407 -0.715504,0 -1.38086,0.233676 -2.00951,0.707232 -0.622447,0.466835 -1.07274,1.15391 -1.35036,2.06069 -0.277103,0.907305 -0.418756,2.33469 -0.418756,4.28889l0 9.96536 -5.07367 0 0 -11.3726c0,-2.02089 -0.0925399,-3.32161 -0.271416,-3.90839 -0.178876,-0.587292 -0.4627,-1.02052 -0.838546,-1.30745 -0.38205,-0.286925 -0.893863,-0.433748 -1.54681,-0.433748 -0.783229,0 -1.48633,0.226955 -2.10877,0.68707 -0.628651,0.453394 -1.07894,1.1141 -1.34984,1.97436 -0.270899,0.860259 -0.406865,2.28093 -0.406865,4.27545l0 10.0853 -5.07367 0 0 -20.7507zm37.0615 6.32994l-4.60425 -0.900584c0.516983,-2.00744 1.40516,-3.4886 2.66866,-4.45536 1.26971,-0.960554 3.14377,-1.44755 5.63511,-1.44755 2.26852,0 3.95078,0.293646 5.06023,0.873701 1.10376,0.580055 1.88647,1.31417 2.33624,2.20803 0.450292,0.893346 0.678281,2.52753 0.678281,4.91547l-0.0553171 6.41007c0,1.82081 0.0801323,3.16859 0.246084,4.03557 0.160782,0.860259 0.468903,1.79445 0.912991,2.78137l-5.02404 0c-0.129246,-0.367058 -0.296231,-0.907305 -0.487515,-1.62074 -0.0796153,-0.326733 -0.141136,-0.540247 -0.178359,-0.647262 -0.869048,0.914025 -1.79341,1.59437 -2.78033,2.05449 -0.985886,0.453394 -2.04053,0.680349 -3.16238,0.680349 -1.97281,0 -3.53203,-0.580055 -4.66629,-1.73396 -1.14046,-1.16063 -1.70759,-2.62834 -1.70759,-4.40262 0,-1.16735 0.259008,-2.21424 0.776508,-3.13498 0.5175,-0.920229 1.24541,-1.62074 2.17598,-2.10774 0.930569,-0.486998 2.28093,-0.913508 4.03763,-1.28057 2.36726,-0.480277 4.01334,-0.933671 4.92581,-1.34726l0 -0.546968c0,-1.06033 -0.240397,-1.80737 -0.721191,-2.26128 -0.480794,-0.446673 -1.38706,-0.673628 -2.72553,-0.673628 -0.905754,0 -1.60833,0.193352 -2.11394,0.580572 -0.505609,0.379982 -0.912474,1.05361 -1.2268,2.02089zm6.78747 4.45536c-0.647262,0.233676 -1.67657,0.513881 -3.08794,0.840614 -1.40619,0.326733 -2.32487,0.647262 -2.76224,0.953833 -0.65967,0.513881 -0.992607,1.15391 -0.992607,1.93455 0,0.773406 0.264695,1.43411 0.795119,1.994 0.529907,0.560409 1.20198,0.840614 2.02192,0.840614 0.919195,0 1.78824,-0.326733 2.62007,-0.973995 0.61676,-0.493201 1.01742,-1.10066 1.20871,-1.82081 0.135449,-0.466835 0.19697,-1.3607 0.19697,-2.67487l0 -1.09394zm37.8566 9.96536l-4.70971 0 0 -3.04813c-0.783229,1.18699 -1.70759,2.06741 -2.77413,2.64799 -1.06602,0.580055 -2.13876,0.86698 -3.2239,0.86698 -2.20752,0 -4.09347,-0.960554 -5.66561,-2.88166 -1.56542,-1.92059 -2.35434,-4.60218 -2.35434,-8.03701 0,-3.5222 0.764617,-6.19655 2.29282,-8.02461 1.52872,-1.82753 3.4643,-2.74776 5.80106,-2.74776 2.13927,0 3.99473,0.967275 5.56067,2.89459l0 -10.3185 5.07315 0 0 28.6481zm-13.5439 -10.8256c0,2.21475 0.283823,3.81533 0.850954,4.80897 0.814248,1.42739 1.96092,2.14806 3.4276,2.14806 1.17148,0 2.16409,-0.540247 2.98402,-1.61402 0.813214,-1.07429 1.2268,-2.68159 1.2268,-4.81621 0,-2.38122 -0.401179,-4.10174 -1.19009,-5.14915 -0.795119,-1.04741 -1.81254,-1.57421 -3.05744,-1.57421 -1.20198,0 -2.207,0.520085 -3.02073,1.55405 -0.813731,1.03397 -1.22111,2.58129 -1.22111,4.6425zm29.6526 4.2222l5.06074 0.914025c-0.653466,2.00744 -1.67709,3.53513 -3.08173,4.58202 -1.39947,1.05413 -3.1567,1.57421 -5.26547,1.57421 -3.33402,0 -5.80003,-1.17407 -7.40371,-3.53513 -1.26351,-1.8875 -1.89836,-4.27545 -1.89836,-7.15039 0,-3.44155 0.832342,-6.13658 2.49651,-8.08406 1.65848,-1.94747 3.76105,-2.92147 6.30047,-2.92147 2.85374,0 5.10417,1.02052 6.75645,3.06157 1.64607,2.04105 2.43499,5.16259 2.36675,9.37135l-12.7167 0c0.0367058,1.62746 0.443571,2.8951 1.22628,3.79517 0.783229,0.907305 1.76291,1.3607 2.92819,1.3607 0.795119,0 1.46099,-0.233159 2.00331,-0.699995 0.542315,-0.473556 0.955901,-1.22732 1.22732,-2.268zm0.290027 -5.54929c-0.0372228,-1.59437 -0.414103,-2.80153 -1.13478,-3.6287 -0.721708,-0.827172 -1.60316,-1.24076 -2.63868,-1.24076 -1.10944,0 -2.02192,0.440469 -2.74311,1.31417 -0.721191,0.86698 -1.07894,2.05449 -1.06654,3.55529l7.5831 0zm31.8089 1.62074l0 -4.82914 11.5215 0 0 11.4124c-1.12185,1.17407 -2.74311,2.20803 -4.86946,3.10138 -2.1279,0.887142 -4.27855,1.33433 -6.45505,1.33433 -2.76741,0 -5.1843,-0.6271 -7.24344,-1.8813 -2.05863,-1.2604 -3.60595,-3.05485 -4.64147,-5.39575 -1.03552,-2.34141 -1.55405,-4.8829 -1.55405,-7.63066 0,-2.98144 0.580055,-5.63615 1.73241,-7.9574 1.15908,-2.31453 2.84806,-4.09554 5.07987,-5.32957 1.69519,-0.953833 3.80965,-1.42739 6.33717,-1.42739 3.28594,0 5.85638,0.74704 7.69942,2.2344 1.84976,1.49408 3.03934,3.55529 3.56977,6.18983l-5.30838 1.07429c-0.375846,-1.40774 -1.07894,-2.52132 -2.10774,-3.33506 -1.02983,-0.814248 -2.31195,-1.22111 -3.85307,-1.22111 -2.33624,0 -4.19221,0.800806 -5.57307,2.40138 -1.38086,1.60782 -2.06483,3.98232 -2.06483,7.13695 0,3.39503 0.696376,5.94995 2.09585,7.65083 1.39327,1.70087 3.22442,2.54769 5.48674,2.54769 1.12185,0 2.2437,-0.23988 3.37176,-0.713436 1.12185,-0.473556 2.08964,-1.05413 2.89769,-1.72776l0 -3.63491 -6.12159 0zm27.519 3.92855l5.06074 0.914025c-0.653466,2.00744 -1.67709,3.53513 -3.08173,4.58202 -1.39947,1.05413 -3.15618,1.57421 -5.26547,1.57421 -3.33454,0 -5.80003,-1.17407 -7.40319,-3.53513 -1.26402,-1.8875 -1.89888,-4.27545 -1.89888,-7.15039 0,-3.44155 0.832859,-6.13658 2.49703,-8.08406 1.65796,-1.94747 3.76053,-2.92147 6.29995,-2.92147 2.85426,0 5.10417,1.02052 6.75645,3.06157 1.64607,2.04105 2.43447,5.16259 2.36675,9.37135l-12.7167 0c0.0367058,1.62746 0.443571,2.8951 1.22628,3.79517 0.783229,0.907305 1.76291,1.3607 2.92819,1.3607 0.795119,0 1.46099,-0.233159 2.00382,-0.699995 0.542315,-0.473556 0.955901,-1.22732 1.2268,-2.268zm0.290027 -5.54929c-0.0372228,-1.59437 -0.413586,-2.80153 -1.13426,-3.6287 -0.721708,-0.827172 -1.60368,-1.24076 -2.6392,-1.24076 -1.10944,0 -2.02192,0.440469 -2.74311,1.31417 -0.721191,0.86698 -1.07894,2.05449 -1.06654,3.55529l7.5831 0zm7.39078 6.22964l5.09176 -0.840614c0.216099,1.06757 0.653466,1.8813 1.31934,2.43499 0.65967,0.553171 1.58403,0.833376 2.78033,0.833376 1.31314,0 2.29954,-0.260042 2.95921,-0.786848 0.449775,-0.360337 0.671561,-0.854055 0.671561,-1.46099 0,-0.41979 -0.123042,-0.766685 -0.363439,-1.04017 -0.252805,-0.260559 -0.819935,-0.500439 -1.69519,-0.720674 -4.09347,-0.973478 -6.68872,-1.86734 -7.78576,-2.67435 -1.51631,-1.12082 -2.27472,-2.68159 -2.27472,-4.67611 0,-1.79393 0.653466,-3.30817 1.9666,-4.52877 1.31262,-1.22732 3.34695,-1.84098 6.10246,-1.84098 2.62627,0 4.58047,0.466835 5.85638,1.38706 1.27591,0.927467 2.15116,2.29489 2.63248,4.10898l-4.78364 0.953833c-0.203691,-0.80701 -0.591945,-1.42739 -1.16528,-1.85442 -0.573334,-0.433231 -1.38706,-0.646745 -2.44791,-0.646745 -1.33692,0 -2.29282,0.200072 -2.87236,0.606938 -0.38205,0.286925 -0.573334,0.660187 -0.573334,1.1141 0,0.393424 0.166468,0.720157 0.505609,0.993641 0.456496,0.367058 2.03433,0.880422 4.74125,1.54733 2.69968,0.660187 4.58615,1.47443 5.65838,2.44119 1.06033,0.980716 1.59024,2.34141 1.59024,4.0821 0,1.90095 -0.733598,3.54185 -2.207,4.90927 -1.46668,1.36742 -3.63646,2.04777 -6.51553,2.04777 -2.61386,0 -4.67921,-0.573334 -6.20741,-1.72104 -1.52251,-1.14046 -2.51512,-2.70123 -2.98402,-4.66887zm31.1498 -14.8276l0 4.37574 -3.46482 0 0 8.36426c0,1.69415 0.031019,2.68107 0.0987437,2.96128 0.0677247,0.280205 0.215582,0.50716 0.450292,0.693791 0.23471,0.17991 0.52422,0.273484 0.857157,0.273484 0.47459,0 1.15235,-0.17991 2.04622,-0.526805l0.431681 4.25528c-1.18389,0.546968 -2.51512,0.820452 -4.01334,0.820452 -0.912474,0 -1.73861,-0.166468 -2.47221,-0.493718 -0.733598,-0.333454 -1.26971,-0.766685 -1.61505,-1.29401 -0.344827,-0.526805 -0.579538,-1.24024 -0.714987,-2.14083 -0.104947,-0.633821 -0.160265,-1.92783 -0.160265,-3.86858l0 -9.04461 -2.33004 0 0 -4.37574 2.33004 0 0 -4.12862 5.09176 -3.20167 0 7.3303 3.46482 0zm7.31737 6.32994l-4.60476 -0.900584c0.516983,-2.00744 1.40516,-3.4886 2.66866,-4.45536 1.27023,-0.960554 3.14429,-1.44755 5.63511,-1.44755 2.268,0 3.95078,0.293646 5.06023,0.873701 1.10428,0.580055 1.88699,1.31417 2.33676,2.20803 0.450292,0.893346 0.678281,2.52753 0.678281,4.91547l-0.0553171 6.41007c0,1.82081 0.0801323,3.16859 0.246084,4.03557 0.160782,0.860259 0.468903,1.79445 0.912991,2.78137l-5.02455 0c-0.129246,-0.367058 -0.296231,-0.907305 -0.487515,-1.62074 -0.0796153,-0.326733 -0.141136,-0.540247 -0.178359,-0.647262 -0.869048,0.914025 -1.79393,1.59437 -2.78033,2.05449 -0.985886,0.453394 -2.04001,0.680349 -3.16187,0.680349 -1.97281,0 -3.53254,-0.580055 -4.6668,-1.73396 -1.14046,-1.16063 -1.70759,-2.62834 -1.70759,-4.40262 0,-1.16735 0.259008,-2.21424 0.776508,-3.13498 0.5175,-0.920229 1.24541,-1.62074 2.17598,-2.10774 0.930569,-0.486998 2.28144,-0.913508 4.03815,-1.28057 2.36675,-0.480277 4.01282,-0.933671 4.92529,-1.34726l0 -0.546968c0,-1.06033 -0.240397,-1.80737 -0.721191,-2.26128 -0.480794,-0.446673 -1.38706,-0.673628 -2.72502,-0.673628 -0.905754,0 -1.60833,0.193352 -2.11394,0.580572 -0.505609,0.379982 -0.912474,1.05361 -1.2268,2.02089zm6.78695 4.45536c-0.647262,0.233676 -1.67709,0.513881 -3.08794,0.840614 -1.40568,0.326733 -2.32435,0.647262 -2.76172,0.953833 -0.65967,0.513881 -0.993124,1.15391 -0.993124,1.93455 0,0.773406 0.265212,1.43411 0.795636,1.994 0.529907,0.560409 1.20198,0.840614 2.02192,0.840614 0.918161,0 1.78773,-0.326733 2.61955,-0.973995 0.61676,-0.493201 1.01742,-1.10066 1.20871,-1.82081 0.135449,-0.466835 0.19697,-1.3607 0.19697,-2.67487l0 -1.09394zm-6.82365 -13.5801l-2.31246 0c-0.0124076,-0.300367 -0.0186114,-0.533526 -0.0186114,-0.707232 0,-1.36742 0.308122,-2.42103 0.919195,-3.15463 0.616243,-0.734115 1.40568,-1.10066 2.36726,-1.10066 0.418756,0 0.813731,0.0465284 1.17717,0.146823 0.357235,0.0930569 1.01742,0.373262 1.97281,0.840097 0.961588,0.460632 1.70759,0.693791 2.24991,0.693791 0.388254,0 0.708783,-0.133382 0.967792,-0.393424 0.259008,-0.260042 0.425477,-0.700512 0.493201,-1.30745l2.34865 0c-0.0118906,1.75412 -0.314325,3.01504 -0.911957,3.7688 -0.592462,0.753761 -1.36277,1.13374 -2.29954,1.13374 -0.413586,0 -0.814248,-0.0465284 -1.21439,-0.140102 -0.271416,-0.0734115 -0.968309,-0.340175 -2.07155,-0.800289 -1.10996,-0.453394 -1.91697,-0.680349 -2.42258,-0.680349 -0.38205,0 -0.684485,0.126661 -0.89955,0.379982 -0.222303,0.253839 -0.332937,0.693791 -0.345344,1.32089zm15.6387 12.8734c0,-1.82081 0.41979,-3.58838 1.24541,-5.29597 0.831825,-1.70087 2.01003,-3.00832 3.53306,-3.90219 1.522,-0.900584 3.22339,-1.35398 5.10365,-1.35398 2.89769,0 5.27684,1.02052 7.13229,3.06157 1.85597,2.04105 2.78033,4.61562 2.78033,7.73044 0,3.13498 -0.936773,5.73644 -2.80515,7.80437 -1.87355,2.06741 -4.22788,3.09466 -7.07026,3.09466 -1.76291,0 -3.4338,-0.427028 -5.03024,-1.28729 -1.59644,-0.860259 -2.81187,-2.12118 -3.64369,-3.78173 -0.825621,-1.66107 -1.24541,-3.68195 -1.24541,-6.06989zm5.20343 0.293129c0,2.06121 0.450292,3.63542 1.35605,4.72936 0.900067,1.09394 2.01572,1.6409 3.34126,1.6409 1.32503,0 2.43499,-0.546968 3.32885,-1.6409 0.900067,-1.09394 1.35036,-2.68159 1.35036,-4.76917 0,-2.02761 -0.450292,-3.5951 -1.35036,-4.68903 -0.893863,-1.09394 -2.00382,-1.6409 -3.32885,-1.6409 -1.32554,0 -2.44119,0.546968 -3.34126,1.6409 -0.905754,1.09394 -1.35605,2.67487 -1.35605,4.72884zm46.4318 10.3789l-4.70971 0 0 -3.04813c-0.783229,1.18699 -1.70759,2.06741 -2.77413,2.64799 -1.06654,0.580055 -2.13876,0.86698 -3.22442,0.86698 -2.207,0 -4.09295,-0.960554 -5.6651,-2.88166 -1.56542,-1.92059 -2.35434,-4.60218 -2.35434,-8.03701 0,-3.5222 0.764617,-6.19655 2.29282,-8.02461 1.52872,-1.82753 3.4643,-2.74776 5.80106,-2.74776 2.13927,0 3.99473,0.967275 5.56015,2.89459l0 -10.3185 5.07367 0 0 28.6481zm-13.5439 -10.8256c0,2.21475 0.283823,3.81533 0.850954,4.80897 0.813731,1.42739 1.9604,2.14806 3.4276,2.14806 1.17148,0 2.16357,-0.540247 2.98351,-1.61402 0.813731,-1.07429 1.22732,-2.68159 1.22732,-4.81621 0,-2.38122 -0.401179,-4.10174 -1.19061,-5.14915 -0.794602,-1.04741 -1.81202,-1.57421 -3.05692,-1.57421 -1.20198,0 -2.20752,0.520085 -3.02125,1.55405 -0.813731,1.03397 -1.2206,2.58129 -1.2206,4.6425zm17.3722 0.153544c0,-1.82081 0.419273,-3.58838 1.24541,-5.29597 0.831825,-1.70087 2.00951,-3.00832 3.53254,-3.90219 1.52251,-0.900584 3.22339,-1.35398 5.10365,-1.35398 2.89717,0 5.27684,1.02052 7.13281,3.06157 1.85545,2.04105 2.78033,4.61562 2.78033,7.73044 0,3.13498 -0.93729,5.73644 -2.80515,7.80437 -1.87406,2.06741 -4.22892,3.09466 -7.07077,3.09466 -1.76291,0 -3.4338,-0.427028 -5.02972,-1.28729 -1.59748,-0.860259 -2.81187,-2.12118 -3.64369,-3.78173 -0.826138,-1.66107 -1.24541,-3.68195 -1.24541,-6.06989zm5.20343 0.293129c0,2.06121 0.449775,3.63542 1.35553,4.72936 0.900584,1.09394 2.01572,1.6409 3.34126,1.6409 1.32554,0 2.43499,-0.546968 3.32885,-1.6409 0.900067,-1.09394 1.35036,-2.68159 1.35036,-4.76917 0,-2.02761 -0.450292,-3.5951 -1.35036,-4.68903 -0.893863,-1.09394 -2.00331,-1.6409 -3.32885,-1.6409 -1.32554,0 -2.44068,0.546968 -3.34126,1.6409 -0.905754,1.09394 -1.35553,2.67487 -1.35553,4.72884zm27.7956 -3.76829c0,-2.92147 0.401179,-5.36938 1.20871,-7.35046 0.604353,-1.45427 1.42429,-2.76793 2.46549,-3.92855 1.04172,-1.15391 2.18218,-2.01468 3.42139,-2.57509 1.65176,-0.759965 3.55115,-1.13374 5.70852,-1.13374 3.90219,0 7.02166,1.30745 9.36411,3.92855 2.34245,2.6149 3.51341,6.25652 3.51341,10.9192 0,4.62906 -1.16476,8.24432 -3.4886,10.8587 -2.32384,2.60818 -5.43142,3.91563 -9.31448,3.91563 -3.93993,0 -7.07129,-1.30073 -9.39513,-3.89546 -2.32384,-2.60146 -3.48343,-6.18311 -3.48343,-10.7388zm5.50535 -0.193352c0,3.24148 0.696376,5.70284 2.07724,7.37683 1.38706,1.67451 3.14429,2.50788 5.27736,2.50788 2.12635,0 3.87685,-0.826655 5.24582,-2.49444 1.36277,-1.66055 2.04673,-4.14879 2.04673,-7.4704 0,-3.28181 -0.665357,-5.72972 -1.99142,-7.35046 -1.33175,-1.61402 -3.10086,-2.42155 -5.30114,-2.42155 -2.207,0 -3.98283,0.820452 -5.33268,2.45463 -1.34415,1.63418 -2.02192,4.09554 -2.02192,7.39751zm29.1713 14.3406l-5.07367 0 0 -20.7507 4.7092 0 0 2.94835c0.807527,-1.3943 1.53544,-2.31453 2.1765,-2.755 0.646745,-0.439952 1.37466,-0.666908 2.19511,-0.666908 1.15856,0 2.268,0.346895 3.34074,1.04069l-1.57163 4.78209c-0.850954,-0.593496 -1.64607,-0.893863 -2.38019,-0.893863 -0.714987,0 -1.31314,0.206793 -1.80634,0.633821 -0.499405,0.420307 -0.881455,1.18751 -1.16476,2.29437 -0.283823,1.10738 -0.42496,3.42863 -0.42496,6.95704l0 6.41007zm26.2607 -14.6141l-5.00594 0.973478c-0.166468,-1.08049 -0.548519,-1.89422 -1.14615,-2.44119 -0.598149,-0.546968 -1.36897,-0.820452 -2.31763,-0.820452 -1.27023,0 -2.27472,0.473556 -3.02693,1.41446 -0.75221,0.947112 -1.12806,2.52753 -1.12806,4.74228 0,2.46135 0.382567,4.20204 1.14615,5.21584 0.764617,1.0138 1.78773,1.52096 3.07605,1.52096 0.967792,0 1.75102,-0.293646 2.36726,-0.887142 0.616243,-0.593496 1.04792,-1.61402 1.30073,-3.05485l4.98733 0.913508c-0.518017,2.4748 -1.51631,4.34886 -2.98351,5.60978 -1.4672,1.26712 -3.4338,1.89422 -5.90601,1.89422 -2.80463,0 -5.04265,-0.953833 -6.70682,-2.86822 -1.67089,-1.91439 -2.50271,-4.56909 -2.50271,-7.9574 0,-3.42191 0.838029,-6.08954 2.50892,-7.99721 1.67657,-1.91439 3.93889,-2.86822 6.79315,-2.86822 2.33676,0 4.1917,0.546968 5.57307,1.63418 1.37466,1.08721 2.36675,2.74776 2.9711,4.97596zm-13.6794 22.4913l0 -2.30781c1.24593,0.140102 2.38019,0.213514 3.41519,0.213514 1.07274,0 1.86786,-0.206793 2.38588,-0.6271 0.394458,-0.306571 0.591945,-0.713436 0.591945,-1.20715 0,-0.446673 -0.18508,-0.827172 -0.554722,-1.15391 -0.375846,-0.326733 -0.955384,-0.486998 -1.73861,-0.486998 -0.770821,0 -1.55974,0.126661 -2.36054,0.386703l0.467869 -1.93403c0.93729,-0.346895 1.94799,-0.526805 3.03314,-0.526805 1.5039,0 2.65057,0.35982 3.43328,1.07377 0.783229,0.720157 1.17148,1.59386 1.17148,2.6211 0,1.14718 -0.431681,2.07465 -1.30073,2.79481 -1.16528,0.973995 -2.84185,1.46771 -5.01783,1.46771 -1.55353,0 -2.7307,-0.107015 -3.52634,-0.313808zm21.3173 -22.298l-4.60476 -0.900584c0.5175,-2.00744 1.40516,-3.4886 2.66866,-4.45536 1.27074,-0.960554 3.14429,-1.44755 5.63511,-1.44755 2.26852,0 3.9513,0.293646 5.06074,0.873701 1.10376,0.580055 1.88647,1.31417 2.33676,2.20803 0.449775,0.893346 0.677764,2.52753 0.677764,4.91547l-0.0553171 6.41007c0,1.82081 0.0801323,3.16859 0.246601,4.03557 0.160265,0.860259 0.468386,1.79445 0.912474,2.78137l-5.02455 0c-0.129246,-0.367058 -0.296231,-0.907305 -0.486998,-1.62074 -0.0801323,-0.326733 -0.141653,-0.540247 -0.178876,-0.647262 -0.869048,0.914025 -1.79341,1.59437 -2.78033,2.05449 -0.985886,0.453394 -2.04001,0.680349 -3.16187,0.680349 -1.97281,0 -3.53254,-0.580055 -4.6668,-1.73396 -1.14046,-1.16063 -1.70759,-2.62834 -1.70759,-4.40262 0,-1.16735 0.259008,-2.21424 0.777025,-3.13498 0.5175,-0.920229 1.24489,-1.62074 2.17546,-2.10774 0.931603,-0.486998 2.28144,-0.913508 4.03815,-1.28057 2.36726,-0.480277 4.01282,-0.933671 4.92581,-1.34726l0 -0.546968c0,-1.06033 -0.240914,-1.80737 -0.721708,-2.26128 -0.480794,-0.446673 -1.38706,-0.673628 -2.7245,-0.673628 -0.906271,0 -1.60885,0.193352 -2.11446,0.580572 -0.505609,0.379982 -0.912474,1.05361 -1.2268,2.02089zm6.78747 4.45536c-0.647779,0.233676 -1.67709,0.513881 -3.08845,0.840614 -1.40568,0.326733 -2.32384,0.647262 -2.76172,0.953833 -0.65967,0.513881 -0.992607,1.15391 -0.992607,1.93455 0,0.773406 0.265212,1.43411 0.795119,1.994 0.529907,0.560409 1.2025,0.840614 2.02244,0.840614 0.918161,0 1.78721,-0.326733 2.61955,-0.973995 0.616243,-0.493201 1.0169,-1.10066 1.20819,-1.82081 0.135449,-0.466835 0.197487,-1.3607 0.197487,-2.67487l0 -1.09394zm9.61019 -10.7853l4.67869 0 0 2.8279c1.67089,-2.2008 3.66799,-3.30145 5.97942,-3.30145 1.22783,0 2.29385,0.273484 3.19392,0.820452 0.906271,0.546968 1.64556,1.37414 2.22509,2.481 0.838546,-1.10686 1.7505,-1.93403 2.72502,-2.481 0.973478,-0.546968 2.01623,-0.820452 3.12568,-0.820452 1.40568,0 2.60146,0.313292 3.57494,0.933671 0.974512,0.613658 1.70139,1.52768 2.1827,2.7214 0.351031,0.887142 0.523703,2.32125 0.523703,4.30233l0 13.2668 -5.07315 0 0 -11.8596c0,-2.06069 -0.172672,-3.3883 -0.52422,-3.98852 -0.468386,-0.780644 -1.18958,-1.17407 -2.16357,-1.17407 -0.715504,0 -1.38086,0.233676 -2.01003,0.707232 -0.622447,0.466835 -1.07222,1.15391 -1.34984,2.06069 -0.277103,0.907305 -0.419273,2.33469 -0.419273,4.28889l0 9.96536 -5.07263 0 0 -11.3726c0,-2.02089 -0.0930569,-3.32161 -0.271416,-3.90839 -0.178876,-0.587292 -0.4627,-1.02052 -0.839063,-1.30745 -0.382567,-0.286925 -0.893863,-0.433748 -1.54733,-0.433748 -0.782712,0 -1.48581,0.226955 -2.10826,0.68707 -0.628651,0.453394 -1.07894,1.1141 -1.34984,1.97436 -0.271416,0.860259 -0.406865,2.28093 -0.406865,4.27545l0 10.0853 -5.07367 0 0 -20.7507zm44.3726 14.1472l5.06178 0.914025c-0.6545,2.00744 -1.67761,3.53513 -3.08277,4.58202 -1.39947,1.05413 -3.15618,1.57421 -5.26443,1.57421 -3.33506,0 -5.80106,-1.17407 -7.40371,-3.53513 -1.26402,-1.8875 -1.89888,-4.27545 -1.89888,-7.15039 0,-3.44155 0.832342,-6.13658 2.49703,-8.08406 1.65796,-1.94747 3.76002,-2.92147 6.30047,-2.92147 2.85374,0 5.10365,1.02052 6.75541,3.06157 1.64607,2.04105 2.43551,5.16259 2.36778,9.37135l-12.7178 0c0.0367058,1.62746 0.444088,2.8951 1.22628,3.79517 0.783229,0.907305 1.76394,1.3607 2.92922,1.3607 0.794602,0 1.46048,-0.233159 2.00331,-0.699995 0.542315,-0.473556 0.955384,-1.22732 1.22628,-2.268zm0.290027 -5.54929c-0.0372228,-1.59437 -0.413069,-2.80153 -1.13426,-3.6287 -0.721191,-0.827172 -1.60316,-1.24076 -2.63816,-1.24076 -1.10996,0 -2.02244,0.440469 -2.74414,1.31417 -0.720674,0.86698 -1.07843,2.05449 -1.06602,3.55529l7.58259 0zm26.6246 12.1527l-5.07367 0 0 -10.5919c0,-2.24112 -0.110634,-3.68867 -0.326733,-4.34886 -0.215582,-0.653983 -0.573334,-1.16735 -1.06033,-1.5344 -0.486481,-0.360337 -1.07222,-0.546968 -1.75671,-0.546968 -0.881455,0 -1.67037,0.260042 -2.36675,0.780644 -0.696893,0.526805 -1.17769,1.21388 -1.43618,2.07413 -0.259008,0.860776 -0.388254,2.44791 -0.388254,4.76917l0 9.39823 -5.07419 0 0 -20.7507 4.7092 0 0 3.04813c1.67761,-2.34762 3.78586,-3.52169 6.32528,-3.52169 1.11565,0 2.14548,0.220235 3.06984,0.653466 0.924882,0.440469 1.62798,0.994158 2.10257,1.67451 0.47459,0.680349 0.807527,1.44703 0.992607,2.30781 0.191284,0.860259 0.283307,2.08758 0.283307,3.68867l0 12.8998zm13.9379 -20.7507l0 4.37574 -3.4643 0 0 8.36426c0,1.69415 0.031019,2.68107 0.0992607,2.96128 0.0672077,0.280205 0.215582,0.50716 0.449258,0.693791 0.23471,0.17991 0.52422,0.273484 0.857157,0.273484 0.47459,0 1.15235,-0.17991 2.04622,-0.526805l0.431681 4.25528c-1.18337,0.546968 -2.51512,0.820452 -4.01282,0.820452 -0.911957,0 -1.7381,-0.166468 -2.47221,-0.493718 -0.733081,-0.333454 -1.26919,-0.766685 -1.61505,-1.29401 -0.345344,-0.526805 -0.579538,-1.24024 -0.715504,-2.14083 -0.104431,-0.633821 -0.159748,-1.92783 -0.159748,-3.86858l0 -9.04461 -2.33004 0 0 -4.37574 2.33004 0 0 -4.12862 5.09176 -3.20167 0 7.3303 3.4643 0z"/>
   <path id="_205800432" class="fil2" d="M617.483 175.211c0,-1.82081 0.419273,-3.58838 1.24541,-5.29597 0.831825,-1.70087 2.00951,-3.00832 3.53203,-3.90219 1.52251,-0.900584 3.2239,-1.35398 5.10417,-1.35398 2.89717,0 5.27684,1.02052 7.13229,3.06157 1.85648,2.04105 2.78085,4.61562 2.78085,7.73044 0,3.13498 -0.93729,5.73644 -2.80567,7.80437 -1.87406,2.06741 -4.2284,3.09466 -7.07026,3.09466 -1.76343,0 -3.43432,-0.427028 -5.03024,-1.28729 -1.59696,-0.860259 -2.81135,-2.12118 -3.64318,-3.78173 -0.826138,-1.66107 -1.24541,-3.68195 -1.24541,-6.06989zm5.20291 0.293129c0,2.06121 0.449775,3.63542 1.35605,4.72936 0.900067,1.09394 2.01572,1.6409 3.34126,1.6409 1.32554,0 2.43499,-0.546968 3.32885,-1.6409 0.900067,-1.09394 1.35036,-2.68159 1.35036,-4.76917 0,-2.02761 -0.450292,-3.5951 -1.35036,-4.68903 -0.893863,-1.09394 -2.00331,-1.6409 -3.32885,-1.6409 -1.32554,0 -2.44119,0.546968 -3.34126,1.6409 -0.906271,1.09394 -1.35605,2.67487 -1.35605,4.72884zm28.7148 10.3789l0 -28.6481 5.34508 0 0 28.6481 -5.34508 0zm10.0238 -20.7507l4.67869 0 0 2.8279c1.67089,-2.2008 3.66799,-3.30145 5.97942,-3.30145 1.2268,0 2.29334,0.273484 3.19392,0.820452 0.905754,0.546968 1.64556,1.37414 2.22509,2.481 0.838546,-1.10686 1.7505,-1.93403 2.72502,-2.481 0.973478,-0.546968 2.01572,-0.820452 3.12464,-0.820452 1.40619,0 2.60249,0.313292 3.57597,0.933671 0.973995,0.613658 1.70139,1.52768 2.1827,2.7214 0.351031,0.887142 0.523186,2.32125 0.523186,4.30233l0 13.2668 -5.07263 0 0 -11.8596c0,-2.06069 -0.172672,-3.3883 -0.52422,-3.98852 -0.468903,-0.780644 -1.19009,-1.17407 -2.16409,-1.17407 -0.714987,0 -1.38086,0.233676 -2.00951,0.707232 -0.622447,0.466835 -1.07222,1.15391 -1.34984,2.06069 -0.277103,0.907305 -0.419273,2.33469 -0.419273,4.28889l0 9.96536 -5.07367 0 0 -11.3726c0,-2.02089 -0.0925399,-3.32161 -0.271416,-3.90839 -0.178359,-0.587292 -0.462183,-1.02052 -0.838029,-1.30745 -0.382567,-0.286925 -0.89438,-0.433748 -1.54733,-0.433748 -0.783229,0 -1.48581,0.226955 -2.10826,0.68707 -0.628651,0.453394 -1.07894,1.1141 -1.34984,1.97436 -0.271416,0.860259 -0.406865,2.28093 -0.406865,4.27545l0 10.0853 -5.07367 0 0 -20.7507zm33.1226 0l4.73401 0 0 3.04813c0.61004,-1.04741 1.44238,-1.89422 2.49031,-2.54149 1.04792,-0.653466 2.2132,-0.980199 3.48963,-0.980199 2.22509,0 4.11725,0.947112 5.6651,2.83462 1.55302,1.8875 2.33056,4.52256 2.33056,7.89743 0,3.46172 -0.783746,6.15675 -2.34297,8.07734 -1.56594,1.92111 -3.4643,2.88166 -5.68991,2.88166 -1.06033,0 -2.0214,-0.226955 -2.88528,-0.680349 -0.85664,-0.460115 -1.76291,-1.24076 -2.71881,-2.34762l0 10.4586 -5.07263 0 0 -28.6481zm5.02352 10.0253c0,2.32746 0.425477,4.05521 1.28263,5.16259 0.850437,1.11358 1.89216,1.67399 3.12516,1.67399 1.17769,0 2.15789,-0.513364 2.9406,-1.53389 0.782712,-1.02052 1.17769,-2.70175 1.17769,-5.02921 0,-2.18115 -0.407382,-3.79569 -1.21439,-4.8493 -0.807527,-1.05413 -1.80634,-1.58093 -2.99591,-1.58093 -1.23972,0 -2.26904,0.513364 -3.08897,1.55405 -0.819935,1.03397 -1.2268,2.56785 -1.2268,4.6027zm16.5398 0.0532492c0,-1.82081 0.419273,-3.58838 1.24541,-5.29597 0.831825,-1.70087 2.00951,-3.00832 3.53203,-3.90219 1.52303,-0.900584 3.22442,-1.35398 5.10417,-1.35398 2.89717,0 5.27684,1.02052 7.13281,3.06157 1.85597,2.04105 2.78033,4.61562 2.78033,7.73044 0,3.13498 -0.936773,5.73644 -2.80515,7.80437 -1.87406,2.06741 -4.22892,3.09466 -7.07077,3.09466 -1.76291,0 -3.4338,-0.427028 -5.03024,-1.28729 -1.59696,-0.860259 -2.81135,-2.12118 -3.64318,-3.78173 -0.826138,-1.66107 -1.24541,-3.68195 -1.24541,-6.06989zm5.20291 0.293129c0,2.06121 0.449775,3.63542 1.35656,4.72936 0.900067,1.09394 2.01572,1.6409 3.34074,1.6409 1.32554,0 2.43499,-0.546968 3.32885,-1.6409 0.900067,-1.09394 1.35036,-2.68159 1.35036,-4.76917 0,-2.02761 -0.450292,-3.5951 -1.35036,-4.68903 -0.893863,-1.09394 -2.00331,-1.6409 -3.32885,-1.6409 -1.32503,0 -2.44068,0.546968 -3.34074,1.6409 -0.906788,1.09394 -1.35656,2.67487 -1.35656,4.72884zm16.7797 4.45587l5.09228 -0.840614c0.216099,1.06757 0.653983,1.8813 1.31934,2.43499 0.65967,0.553171 1.58403,0.833376 2.78033,0.833376 1.31262,0 2.29954,-0.260042 2.95869,-0.786848 0.449775,-0.360337 0.672077,-0.854055 0.672077,-1.46099 0,-0.41979 -0.123559,-0.766685 -0.363956,-1.04017 -0.252805,-0.260559 -0.819935,-0.500439 -1.69519,-0.720674 -4.09295,-0.973478 -6.68821,-1.86734 -7.78576,-2.67435 -1.51631,-1.12082 -2.27472,-2.68159 -2.27472,-4.67611 0,-1.79393 0.653466,-3.30817 1.9666,-4.52877 1.31314,-1.22732 3.34746,-1.84098 6.10298,-1.84098 2.62576,0 4.58047,0.466835 5.85638,1.38706 1.27591,0.927467 2.15116,2.29489 2.63248,4.10898l-4.78416 0.953833c-0.203691,-0.80701 -0.591945,-1.42739 -1.16528,-1.85442 -0.573334,-0.433231 -1.38706,-0.646745 -2.4474,-0.646745 -1.33692,0 -2.29282,0.200072 -2.87236,0.606938 -0.38205,0.286925 -0.573334,0.660187 -0.573334,1.1141 0,0.393424 0.166468,0.720157 0.505609,0.993641 0.456496,0.367058 2.03433,0.880422 4.74073,1.54733 2.7002,0.660187 4.58667,1.47443 5.65889,2.44119 1.06033,0.980716 1.59024,2.34141 1.59024,4.0821 0,1.90095 -0.733598,3.54185 -2.207,4.90927 -1.46668,1.36742 -3.63697,2.04777 -6.51553,2.04777 -2.61386,0 -4.67921,-0.573334 -6.20793,-1.72104 -1.52251,-1.14046 -2.51512,-2.70123 -2.98402,-4.66887zm22.3595 -17.6426l0 -5.08246 5.07315 0 0 5.08246 -5.07315 0zm0 23.5656l0 -20.7507 5.07315 0 0 20.7507 -5.07315 0zm19.0674 -20.7507l0 4.37574 -3.46482 0 0 8.36426c0,1.69415 0.031019,2.68107 0.0987437,2.96128 0.0677247,0.280205 0.215582,0.50716 0.449775,0.693791 0.23471,0.17991 0.52422,0.273484 0.857157,0.273484 0.474073,0 1.15235,-0.17991 2.04622,-0.526805l0.431681 4.25528c-1.18389,0.546968 -2.51512,0.820452 -4.01334,0.820452 -0.911957,0 -1.7381,-0.166468 -2.47169,-0.493718 -0.733598,-0.333454 -1.26971,-0.766685 -1.61505,-1.29401 -0.344827,-0.526805 -0.579538,-1.24024 -0.714987,-2.14083 -0.104947,-0.633821 -0.160265,-1.92783 -0.160265,-3.86858l0 -9.04461 -2.33056 0 0 -4.37574 2.33056 0 0 -4.12862 5.09176 -3.20167 0 7.3303 3.46482 0zm3.52582 -2.81497l0 -5.08246 5.07315 0 0 5.08246 -5.07315 0zm0 23.5656l0 -20.7507 5.07315 0 0 20.7507 -5.07315 0zm15.5472 0l-7.72993 -20.7507 5.32544 0 3.61319 10.5919 1.04741 3.53513c0.27762,-0.900067 0.456496,-1.49408 0.52422,-1.78101 0.172672,-0.586775 0.351031,-1.17355 0.542315,-1.75412l3.64938 -10.5919 5.22153 0 -7.62601 20.7507 -4.56754 0zm14.1229 -10.6721c0,-1.82081 0.419273,-3.58838 1.24541,-5.29597 0.831825,-1.70087 2.00951,-3.00832 3.53203,-3.90219 1.52303,-0.900584 3.22442,-1.35398 5.10417,-1.35398 2.89717,0 5.27736,1.02052 7.13281,3.06157 1.85597,2.04105 2.78033,4.61562 2.78033,7.73044 0,3.13498 -0.936773,5.73644 -2.80515,7.80437 -1.87355,2.06741 -4.22892,3.09466 -7.07077,3.09466 -1.76291,0 -3.4338,-0.427028 -5.03024,-1.28729 -1.59696,-0.860259 -2.81135,-2.12118 -3.64318,-3.78173 -0.826138,-1.66107 -1.24541,-3.68195 -1.24541,-6.06989zm5.20343 0.293129c0,2.06121 0.449775,3.63542 1.35605,4.72936 0.900067,1.09394 2.01572,1.6409 3.34074,1.6409 1.32554,0 2.43499,-0.546968 3.32885,-1.6409 0.900067,-1.09394 1.35088,-2.68159 1.35088,-4.76917 0,-2.02761 -0.450809,-3.5951 -1.35088,-4.68903 -0.893863,-1.09394 -2.00331,-1.6409 -3.32885,-1.6409 -1.32503,0 -2.44068,0.546968 -3.34074,1.6409 -0.906271,1.09394 -1.35605,2.67487 -1.35605,4.72884z"/>
  </g>
 </g>
</svg>
