<?xml version="1.0" encoding="UTF-8"?>
<!DOCTYPE svg PUBLIC "-//W3C//DTD SVG 1.1//EN" "http://www.w3.org/Graphics/SVG/1.1/DTD/svg11.dtd">
<!-- Creator: CorelDRAW -->
<svg xmlns="http://www.w3.org/2000/svg" xml:space="preserve" width="40px" height="36px" style="shape-rendering:geometricPrecision; text-rendering:geometricPrecision; image-rendering:optimizeQuality; fill-rule:evenodd; clip-rule:evenodd"
viewBox="0 0 2.35264 2.1419"
 xmlns:xlink="http://www.w3.org/1999/xlink">
 <defs>
  <style type="text/css">
   <![CDATA[
    .fil0 {fill:#00AFEF;fill-rule:nonzero}
    .fil1 {fill:#5B9F91;fill-rule:nonzero}
   ]]>
  </style>
 </defs>
 <g id="Camada_x0020_1">
  <metadata id="CorelCorpID_0Corel-Layer"/>
  <polygon class="fil0" points="2.00207,0.752763 2.00882,1.10387 1.60567,1.10309 1.59891,0.751974 1.24834,0.751287 1.24063,0.35043 1.5912,0.351111 1.58445,0 1.9876,0.00078828 1.99435,0.3519 2.34493,0.352587 2.35264,0.753444 "/>
  <path class="fil1" d="M1.29458 1.93122c-0.0129391,0.00923977 -0.0401967,0.0249491 -0.0817785,0.0471223 -0.0415818,0.0221788 -0.0951792,0.0457428 -0.160781,0.0706919 -0.0656074,0.0249491 -0.140916,0.0466606 -0.225927,0.0651457 -0.085016,0.0184795 -0.177419,0.0277193 -0.27721,0.0277193 -0.0258781,0 -0.0623755,-0.00323195 -0.109503,-0.00970148 -0.0471223,-0.00646953 -0.0942502,-0.0240257 -0.141372,-0.0526684 -0.0471279,-0.0286484 -0.0877863,-0.0716153 -0.121975,-0.128906 -0.0341888,-0.0572911 -0.0512833,-0.135832 -0.0512833,-0.235628l0 -0.64313c0,-0.0166327 0.00415536,-0.047584 0.0124717,-0.092865 0.00831636,-0.0452754 0.0314186,-0.0924033 0.0693067,-0.141378 0.0378825,-0.0489747 0.0951736,-0.0919416 0.171868,-0.128901 0.076694,-0.0369647 0.183422,-0.0554443 0.320177,-0.0554443 0.134914,0 0.239789,0.0166327 0.314636,0.0498981 0.0748472,0.0332654 0.129362,0.072077 0.163557,0.116429 0.0341888,0.044352 0.0545152,0.0891714 0.0609847,0.134447 0.00646953,0.0452811 0.00970148,0.0799316 0.00970148,0.103957l0 0.482343 -0.717977 0 0 0.171873c0,0.0129334 0.00600782,0.0244874 0.0180178,0.0346505 0.0120156,0.0101632 0.0328037,0.0152476 0.0623755,0.0152476 0.0129334,0 0.0369591,-0.00277587 0.0720713,-0.00831636 0.0351179,-0.00554611 0.076238,-0.0143242 0.12336,-0.0263398 0.0471279,-0.01201 0.0988729,-0.0277193 0.155241,-0.0471223 0.056362,-0.019403 0.113191,-0.0438903 0.170483,-0.0734621l0.163557 0.324338zm-0.449083 -0.820543c0,-0.00554611 -0.000923414,-0.0129391 -0.00277024,-0.0221788 -0.00185246,-0.00923977 -0.00739294,-0.0180178 -0.0166327,-0.0263342 -0.00923977,-0.00831636 -0.0240257,-0.0157093 -0.0443577,-0.0221788 -0.0203264,-0.0064639 -0.0480457,-0.00970148 -0.0831636,-0.00970148 -0.0388059,0 -0.0697628,0.00369929 -0.092865,0.0110922 -0.0230966,0.00738731 -0.040191,0.0157037 -0.0512833,0.0249491 -0.0110866,0.00923977 -0.0180178,0.0189412 -0.0207881,0.0291044 -0.00277587,0.0101632 -0.00416099,0.0180178 -0.00416099,0.023564l0 0.0831636 0.316022 0 0 -0.0914799z"/>
 </g>
</svg>
