<?xml version="1.0" encoding="UTF-8"?>
<!DOCTYPE svg PUBLIC "-//W3C//DTD SVG 1.1//EN" "http://www.w3.org/Graphics/SVG/1.1/DTD/svg11.dtd">
<!-- Creator: CorelDRAW -->
<svg xmlns="http://www.w3.org/2000/svg" xml:space="preserve" width="180px" height="42px" style="shape-rendering:geometricPrecision; text-rendering:geometricPrecision; image-rendering:optimizeQuality; fill-rule:evenodd; clip-rule:evenodd"
viewBox="0 0 78.7865 18.3666"
 xmlns:xlink="http://www.w3.org/1999/xlink">
 <defs>
  <style type="text/css">
   <![CDATA[
    .fil2 {fill:#848688;fill-rule:nonzero}
    .fil0 {fill:#00A1D5;fill-rule:nonzero}
    .fil1 {fill:#5B9F91;fill-rule:nonzero}
   ]]>
  </style>
 </defs>
 <g id="Camada_x0020_1">
  <metadata id="CorelCorpID_0Corel-Layer"/>
  <polygon class="fil0" points="76.4515,5.38668 76.4965,7.72529 73.8113,7.72005 73.7663,5.38145 71.4313,5.3769 71.38,2.70697 73.7149,2.71157 73.67,0.372912 76.3552,0.378148 76.4002,2.7168 78.7352,2.72135 78.7865,5.39128 "/>
  <path class="fil1" d="M-0 12.9592l0 -12.5738 8.84955 0 0 3.32412 -5.36261 0 0 1.05983 3.72736 0 0 3.03506 -3.72736 0 0 1.90292 5.36261 0 0 3.25185 -8.84955 0zm22.8934 -9.68325l0 9.65918 -3.48689 0 0 -4.81758 -2.47692 3.5891 -2.47692 -3.5891 0 4.81758 -3.48694 0 0 -9.65918 -0.312587 -2.40876 2.69337 -0.867161 3.58308 5.75695 3.58308 -5.75695 2.69337 0.867161 -0.312636 2.40876zm2.95791 9.68325l0 -12.5738 8.84955 0 0 3.32412 -5.36266 0 0 1.05983 3.72741 0 0 3.03506 -3.72741 0 0 1.90292 5.36266 0 0 3.25185 -8.84955 0zm17.6029 -0.0240715l-3.15023 -4.67305 0 4.67305 -3.48694 0 0 -9.61099 -0.312587 -2.45696 2.66925 -0.867161 3.87174 6.2146 0 -5.8051 3.51092 0 0 12.5256 -3.10214 0zm15.5829 -3.56498c0,0.867161 -0.152306,1.54963 -0.456918,2.04745 -0.304612,0.49782 -0.66133,0.867161 -1.07011,1.10802 -0.408824,0.240862 -0.817648,0.393412 -1.22642,0.457652 -0.408824,0.0642396 -0.717448,0.0963838 -0.925872,0.0963838 -0.545082,0 -1.06609,-0.0802872 -1.56313,-0.240911 -0.496939,-0.160574 -0.961881,-0.369341 -1.39473,-0.62625l-0.264493 0.746706 -2.81363 0 0 -12.5738 6.03598 0c0.689365,0.0321443 1.29859,0.192719 1.82762,0.481772 0.224472,0.128479 0.448894,0.285042 0.673317,0.469688 0.224472,0.184695 0.424872,0.417533 0.601249,0.698563 0.176329,0.28103 0.316599,0.610203 0.420811,0.987567 0.104212,0.377414 0.156318,0.806982 0.156318,1.28871l0 5.05844zm-3.43885 -5.05844c0,-0.112383 -0.0240226,-0.208766 -0.0721166,-0.289054 -0.0320464,-0.0802872 -0.0921762,-0.152551 -0.180341,-0.21679 -0.0881643,-0.0642396 -0.204412,-0.0963349 -0.348694,-0.0963349l-2.18835 0 0 5.13065c0.513036,0.369341 0.945883,0.622287 1.29859,0.75879 0.352706,0.136503 0.641271,0.204755 0.865693,0.204755 0.16033,0 0.284601,-0.0321443 0.372766,-0.0963838 0.0881643,-0.0642396 0.148294,-0.136503 0.180341,-0.21679 0.0480941,-0.0963349 0.0721166,-0.208766 0.0721166,-0.337197l0 -4.84165zm13.4186 9.2256l-0.841622 -2.74601 -3.65525 0 -0.889814 2.74601 -3.27049 -1.20441 4.28052 -11.9475 3.39075 0 4.23238 11.9475 -3.24647 1.20441zm-2.69332 -7.87666l-0.817599 2.38464 1.70741 0 -0.889814 -2.38464z"/>
  <g id="_215206432">
   <path id="_215206552" class="fil2" d="M-0 17.5915l0 -2.71117 0.811532 0c0.30745,0 0.508095,0.0138949 0.601445,0.0410488 0.143597,0.0403638 0.264297,0.128773 0.36117,0.26508 0.0968242,0.136356 0.145261,0.312489 0.145261,0.527714 0,0.16669 -0.0280345,0.306814 -0.0840056,0.419783 -0.05602,0.113655 -0.12662,0.202651 -0.212925,0.267673 -0.0857669,0.0643864 -0.173295,0.107294 -0.261998,0.128137 -0.120749,0.0258818 -0.295757,0.0391406 -0.525023,0.0391406l-0.329662 0 0 1.0226 -0.505795 0zm0.505795 -2.25225l0 0.76882 0.276578 0c0.199519,0 0.333087,-0.0138949 0.400213,-0.0422719 0.0670284,-0.0284259 0.119526,-0.0726059 0.158079,-0.133176 0.0379175,-0.0606191 0.0571453,-0.130681 0.0571453,-0.21087 0,-0.0984387 -0.0268113,-0.1799 -0.080483,-0.244287 -0.0530845,-0.0637503 -0.121385,-0.104163 -0.203042,-0.119917 -0.060668,-0.0126229 -0.181955,-0.0182983 -0.364008,-0.0182983l-0.244482 0zm1.82547 2.25225l0 -2.71117 0.480158 0 0 2.71117 -0.480158 0zm1.33132 -1.36474l-0.435782 -0.0852288c0.0490237,-0.189979 0.133029,-0.330151 0.252653,-0.421643 0.120162,-0.0909041 0.297518,-0.136992 0.533193,-0.136992 0.214735,0 0.373989,0.0277899 0.478984,0.0826846 0.104457,0.0548948 0.17853,0.124369 0.221096,0.208962 0.0426144,0.0845438 0.0641417,0.239198 0.0641417,0.465187l-0.00523506 0.606631c0,0.172317 0.00763243,0.299866 0.0233376,0.381915 0.0152159,0.0814125 0.0443757,0.169821 0.086354,0.263221l-0.475412 0c-0.0122804,-0.0347373 -0.0280345,-0.0858648 -0.046137,-0.153382 -0.00753457,-0.0309211 -0.0133567,-0.0511275 -0.0169283,-0.0612551 -0.0822443,0.0865008 -0.169724,0.150887 -0.263123,0.194431 -0.0933504,0.0429079 -0.193061,0.0643864 -0.29923,0.0643864 -0.186701,0 -0.33431,-0.0548948 -0.441653,-0.164097 -0.107979,-0.109838 -0.161651,-0.248739 -0.161651,-0.416652 0,-0.110474 0.0245118,-0.209549 0.0735355,-0.296686 0.0490237,-0.0870879 0.117862,-0.153382 0.205978,-0.199471 0.0880665,-0.0460881 0.215861,-0.0864519 0.382111,-0.121189 0.223982,-0.0454521 0.379811,-0.08836 0.466165,-0.127501l0 -0.0517635c0,-0.100347 -0.0227994,-0.171045 -0.0682515,-0.214001 -0.045501,-0.0422719 -0.131317,-0.0637503 -0.257937,-0.0637503 -0.085718,0 -0.152257,0.0182983 -0.200058,0.0549437 -0.0478494,0.0359605 -0.086403,0.0997108 -0.11615,0.191251zm0.642396 0.421643c-0.0612551,0.0221145 -0.158764,0.0486323 -0.292332,0.0795534 -0.133029,0.0309211 -0.219922,0.0612551 -0.261313,0.0902681 -0.0624783,0.0486323 -0.0939865,0.109202 -0.0939865,0.18308 0,0.073193 0.0250989,0.13572 0.0752968,0.188707 0.050149,0.0530356 0.113753,0.0795534 0.191349,0.0795534 0.0868922,0 0.169137,-0.0309211 0.247956,-0.0921762 0.0583196,-0.0466752 0.096286,-0.104163 0.11434,-0.172317 0.0128675,-0.04418 0.0186897,-0.128773 0.0186897,-0.253142l0 -0.103527zm1.77762 -1.02069l0 0.414108 -0.32795 0 0 0.791571c0,0.16033 0.00298447,0.253729 0.00939375,0.280247 0.00636035,0.0265178 0.0204021,0.0479962 0.0425165,0.0656584 0.0222123,0.0170262 0.0496108,0.0258818 0.081119,0.0258818 0.0449139,0 0.109105,-0.0170262 0.193746,-0.0498554l0.0408041 0.402708c-0.111991,0.0517635 -0.238073,0.0776453 -0.379811,0.0776453 -0.0863051,0 -0.164489,-0.0157541 -0.233963,-0.0467241 -0.0693768,-0.0315571 -0.120113,-0.072557 -0.152795,-0.122461 -0.0326335,-0.0498554 -0.0548458,-0.117373 -0.0677133,-0.202602 -0.00988301,-0.059983 -0.0151181,-0.182444 -0.0151181,-0.366112l0 -0.855957 -0.220558 0 0 -0.414108 0.220558 0 0 -0.390721 0.481821 -0.302998 0 0.693719 0.32795 0zm0.692398 0.599048l-0.435733 -0.0852288c0.0489747,-0.189979 0.13298,-0.330151 0.252555,-0.421643 0.120211,-0.0909041 0.297567,-0.136992 0.533291,-0.136992 0.214686,0 0.37394,0.0277899 0.478935,0.0826846 0.104457,0.0548948 0.17853,0.124369 0.221145,0.208962 0.0425655,0.0845438 0.0641417,0.239198 0.0641417,0.465187l-0.00523506 0.606631c0,0.172317 0.0075835,0.299866 0.0233376,0.381915 0.015167,0.0814125 0.0443268,0.169821 0.086354,0.263221l-0.47551 0c-0.0122315,-0.0347373 -0.0279856,-0.0858648 -0.0460881,-0.153382 -0.00753457,-0.0309211 -0.0134057,-0.0511275 -0.0169283,-0.0612551 -0.0822443,0.0865008 -0.169724,0.150887 -0.263074,0.194431 -0.0933504,0.0429079 -0.19311,0.0643864 -0.299279,0.0643864 -0.186701,0 -0.33431,-0.0548948 -0.441653,-0.164097 -0.10793,-0.109838 -0.161602,-0.248739 -0.161602,-0.416652 0,-0.110474 0.0245118,-0.209549 0.0735355,-0.296686 0.0489747,-0.0870879 0.117813,-0.153382 0.205929,-0.199471 0.0880665,-0.0460881 0.215812,-0.0864519 0.382159,-0.121189 0.223982,-0.0454521 0.379762,-0.08836 0.466116,-0.127501l0 -0.0517635c0,-0.100347 -0.0227994,-0.171045 -0.0683004,-0.214001 -0.0454521,-0.0422719 -0.131268,-0.0637503 -0.257839,-0.0637503 -0.085718,0 -0.152257,0.0182983 -0.200107,0.0549437 -0.0478494,0.0359605 -0.086403,0.0997108 -0.11615,0.191251zm0.642396 0.421643c-0.0612551,0.0221145 -0.158715,0.0486323 -0.292283,0.0795534 -0.133029,0.0309211 -0.219922,0.0612551 -0.261411,0.0902681 -0.0624293,0.0486323 -0.0939375,0.109202 -0.0939375,0.18308 0,0.073193 0.0250989,0.13572 0.0752968,0.188707 0.0501979,0.0530356 0.113801,0.0795534 0.191398,0.0795534 0.0868922,0 0.169137,-0.0309211 0.247907,-0.0921762 0.0583196,-0.0466752 0.0962371,-0.104163 0.11434,-0.172317 0.0128675,-0.04418 0.0186897,-0.128773 0.0186897,-0.253142l0 -0.103527zm0.735061 -1.02069l0.266597 0 0 -0.148343c0,-0.164782 0.0163412,-0.288467 0.0490237,-0.369928 0.0326824,-0.0814125 0.0921762,-0.147707 0.179068,-0.198834 0.0875283,-0.0511275 0.197807,-0.0763732 0.330787,-0.0763732 0.13709,0 0.270706,0.0221145 0.401974,0.0662945l-0.0647288 0.362932c-0.0764221,-0.0201574 -0.149958,-0.029649 -0.220509,-0.029649 -0.0700128,0 -0.119624,0.0170262 -0.149958,0.0523995 -0.030334,0.0353244 -0.0449139,0.102891 -0.0449139,0.202602l0 0.1389 0.358773 0 0 0.408384 -0.358773 0 0 1.5554 -0.480745 0 0 -1.5554 -0.266597 0 0 -0.408384zm1.26478 0.953809c0,-0.172317 0.0396788,-0.339594 0.117862,-0.501196 0.0787705,-0.160966 0.190224,-0.284699 0.33431,-0.369292 0.144087,-0.0852288 0.305052,-0.128137 0.482996,-0.128137 0.274229,0 0.499386,0.0965795 0.675029,0.289739 0.175595,0.193159 0.263123,0.43681 0.263123,0.731588 0,0.296686 -0.0887025,0.542881 -0.265471,0.738584 -0.177356,0.195654 -0.400164,0.29287 -0.669158,0.29287 -0.166837,0 -0.324965,-0.0404127 -0.475999,-0.121825 -0.151132,-0.0814125 -0.266059,-0.200743 -0.344829,-0.357892 -0.0781834,-0.157199 -0.117862,-0.34845 -0.117862,-0.574438zm0.492438 0.0277409c0,0.195067 0.0425655,0.344046 0.128283,0.447573 0.0852288,0.103527 0.190762,0.155291 0.316207,0.155291 0.125446,0 0.230489,-0.0517635 0.315082,-0.155291 0.0851798,-0.103527 0.127745,-0.253778 0.127745,-0.451341 0,-0.191887 -0.0425655,-0.34023 -0.127745,-0.443757 -0.0845927,-0.103527 -0.189636,-0.155291 -0.315082,-0.155291 -0.125446,0 -0.230979,0.0517635 -0.316207,0.155291 -0.085718,0.103527 -0.128283,0.253142 -0.128283,0.447524zm2.21688 0.982234l-0.480109 0 0 -1.96378 0.445665 0 0 0.279024c0.0764221,-0.131953 0.14531,-0.219041 0.205978,-0.260726 0.0612551,-0.0416359 0.130143,-0.0631143 0.20769,-0.0631143 0.109643,0 0.214686,0.0328292 0.316207,0.0984876l-0.148734 0.452564c-0.0805319,-0.0561668 -0.15578,-0.0845927 -0.225205,-0.0845927 -0.0676644,0 -0.124272,0.0195703 -0.170996,0.059983 -0.0472623,0.0397767 -0.0834185,0.112383 -0.11023,0.217133 -0.0268603,0.104799 -0.0402659,0.324476 -0.0402659,0.658395l0 0.606631zm0.866329 -1.96378l0.442827 0 0 0.267624c0.158128,-0.208277 0.347129,-0.31244 0.565876,-0.31244 0.11615,0 0.217084,0.0258818 0.302264,0.0776453 0.085718,0.0517635 0.155682,0.130045 0.210528,0.234795 0.0793577,-0.10475 0.165712,-0.183031 0.257888,-0.234795 0.0921273,-0.0517635 0.190762,-0.0776453 0.295805,-0.0776453 0.133029,0 0.246195,0.029649 0.338322,0.08836 0.0922251,0.0580749 0.161015,0.144576 0.206565,0.257545 0.0332206,0.0839567 0.0495618,0.219677 0.0495618,0.407161l0 1.25553 -0.480109 0 0 -1.12236c0,-0.195018 -0.0163412,-0.32066 -0.0496108,-0.377463 -0.0442779,-0.073878 -0.112578,-0.111111 -0.204755,-0.111111 -0.0677133,0 -0.130681,0.0221145 -0.190175,0.0669305 -0.0589067,0.04418 -0.101521,0.109202 -0.127794,0.195018 -0.0262242,0.0858648 -0.0396299,0.220949 -0.0396299,0.405888l0 0.943094 -0.480158 0 0 -1.07627c0,-0.191251 -0.00875772,-0.314348 -0.025686,-0.369879 -0.0169283,-0.0555797 -0.0437886,-0.0965795 -0.0793577,-0.123733 -0.0361562,-0.0271538 -0.0845927,-0.0410488 -0.146386,-0.0410488 -0.0741226,0 -0.140662,0.0214784 -0.199568,0.0650224 -0.0594938,0.0429079 -0.102108,0.105435 -0.127745,0.186848 -0.0256371,0.0814125 -0.0385046,0.215861 -0.0385046,0.404616l0 0.954445 -0.480158 0 0 -1.96378zm3.50739 0.599048l-0.435733 -0.0852288c0.0489258,-0.189979 0.13298,-0.330151 0.252555,-0.421643 0.120162,-0.0909041 0.297518,-0.136992 0.533291,-0.136992 0.214686,0 0.373891,0.0277899 0.478886,0.0826846 0.104457,0.0548948 0.17853,0.124369 0.221096,0.208962 0.0426144,0.0845438 0.0641907,0.239198 0.0641907,0.465187l-0.00523506 0.606631c0,0.172317 0.0075835,0.299866 0.0232887,0.381915 0.0152159,0.0814125 0.0443757,0.169821 0.086403,0.263221l-0.475461 0c-0.0122315,-0.0347373 -0.0280345,-0.0858648 -0.046137,-0.153382 -0.00753457,-0.0309211 -0.0133567,-0.0511275 -0.0168794,-0.0612551 -0.0822443,0.0865008 -0.169724,0.150887 -0.263123,0.194431 -0.0933015,0.0429079 -0.19311,0.0643864 -0.299279,0.0643864 -0.186701,0 -0.334261,-0.0548948 -0.441604,-0.164097 -0.10793,-0.109838 -0.161602,-0.248739 -0.161602,-0.416652 0,-0.110474 0.0245118,-0.209549 0.0734866,-0.296686 0.0489747,-0.0870879 0.117862,-0.153382 0.205929,-0.199471 0.0880665,-0.0460881 0.215861,-0.0864519 0.382111,-0.121189 0.224031,-0.0454521 0.379811,-0.08836 0.466165,-0.127501l0 -0.0517635c0,-0.100347 -0.0227505,-0.171045 -0.0682515,-0.214001 -0.045501,-0.0422719 -0.131268,-0.0637503 -0.257937,-0.0637503 -0.085718,0 -0.152208,0.0182983 -0.200058,0.0549437 -0.0478494,0.0359605 -0.086354,0.0997108 -0.116101,0.191251zm0.642347 0.421643c-0.0612551,0.0221145 -0.158666,0.0486323 -0.292234,0.0795534 -0.133078,0.0309211 -0.220019,0.0612551 -0.261411,0.0902681 -0.0624293,0.0486323 -0.0939375,0.109202 -0.0939375,0.18308 0,0.073193 0.02505,0.13572 0.0752479,0.188707 0.050149,0.0530356 0.113753,0.0795534 0.191349,0.0795534 0.0869901,0 0.169234,-0.0309211 0.247956,-0.0921762 0.0583685,-0.0466752 0.096286,-0.104163 0.114389,-0.172317 0.0128186,-0.04418 0.0186407,-0.128773 0.0186407,-0.253142l0 -0.103527zm3.58264 0.943094l-0.445714 0 0 -0.288467c-0.0741226,0.112334 -0.161602,0.195654 -0.262536,0.250598 -0.100885,0.0548948 -0.202406,0.0820486 -0.305101,0.0820486 -0.208913,0 -0.387395,-0.0909041 -0.536178,-0.272712 -0.148147,-0.181759 -0.222808,-0.435538 -0.222808,-0.760601 0,-0.333332 0.0723613,-0.586425 0.216986,-0.759426 0.144674,-0.172953 0.327852,-0.260041 0.548996,-0.260041 0.202455,0 0.37805,0.0915402 0.526246,0.273936l0 -0.97651 0.480109 0 0 2.71117zm-1.28176 -1.02451c0,0.209598 0.0268603,0.361072 0.0805319,0.455108 0.0770581,0.135084 0.185576,0.203287 0.324378,0.203287 0.110866,0 0.204803,-0.0511275 0.2824,-0.152746 0.0769603,-0.101668 0.116101,-0.253778 0.116101,-0.455793 0,-0.225352 -0.0379664,-0.388177 -0.112627,-0.487301 -0.0752479,-0.0991237 -0.171534,-0.148979 -0.289347,-0.148979 -0.113753,0 -0.208864,0.0492194 -0.285873,0.147071 -0.0770092,0.0978516 -0.115563,0.244287 -0.115563,0.439354zm2.80624 0.399577l0.478935 0.0865008c-0.0618422,0.189979 -0.158715,0.334555 -0.291647,0.433629 -0.132442,0.0997597 -0.298741,0.148979 -0.498309,0.148979 -0.315523,0 -0.548899,-0.111111 -0.700666,-0.334555 -0.119575,-0.178628 -0.179656,-0.404616 -0.179656,-0.676693 0,-0.325699 0.0787705,-0.580749 0.236263,-0.765053 0.156954,-0.184304 0.355935,-0.27648 0.596259,-0.27648 0.27007,0 0.483044,0.0965795 0.639411,0.289739 0.15578,0.193159 0.230441,0.488573 0.223982,0.886878l-1.20348 0c0.00347373,0.154018 0.0419783,0.273985 0.116052,0.359164 0.0741226,0.0858648 0.166837,0.128773 0.277116,0.128773 0.0752479,0 0.138264,-0.0220655 0.189588,-0.0662455 0.0513232,-0.044816 0.0904638,-0.11615 0.11615,-0.214638zm0.0274474 -0.52517c-0.00352266,-0.150887 -0.0391896,-0.265129 -0.107392,-0.34341 -0.0683004,-0.0782813 -0.151719,-0.117422 -0.249717,-0.117422 -0.104995,0 -0.191349,0.0416848 -0.2596,0.124369 -0.0682515,0.0820486 -0.102108,0.194431 -0.100934,0.336463l0.717644 0zm3.01031 0.153382l0 -0.457016 1.09036 0 0 1.08004c-0.106169,0.111111 -0.2596,0.208962 -0.460832,0.293506 -0.201379,0.0839567 -0.40491,0.126278 -0.610888,0.126278 -0.2619,0 -0.490628,-0.059347 -0.685499,-0.178041 -0.194823,-0.119281 -0.341258,-0.289103 -0.439256,-0.510639 -0.0979984,-0.221585 -0.147071,-0.462104 -0.147071,-0.722145 0,-0.282155 0.0548948,-0.533389 0.16395,-0.753066 0.109692,-0.219041 0.269532,-0.38759 0.480745,-0.504376 0.160428,-0.0902681 0.360534,-0.135084 0.599733,-0.135084 0.310972,0 0.554232,0.0706978 0.728652,0.211457 0.175057,0.141396 0.287635,0.336463 0.337833,0.585789l-0.50237 0.101668c-0.0355691,-0.133225 -0.102108,-0.238611 -0.199471,-0.31562 -0.0974602,-0.0770581 -0.218796,-0.115563 -0.364644,-0.115563 -0.221096,0 -0.396739,0.0757861 -0.52742,0.22726 -0.130681,0.152159 -0.19541,0.376875 -0.19541,0.675421 0,0.321296 0.0659031,0.563087 0.198345,0.724053 0.131855,0.160966 0.30515,0.241106 0.51925,0.241106 0.106169,0 0.212338,-0.0227016 0.319094,-0.0675176 0.106169,-0.044816 0.197758,-0.0997597 0.274229,-0.16351l0 -0.343997 -0.57933 0zm2.60432 0.371787l0.478935 0.0865008c-0.0618422,0.189979 -0.158715,0.334555 -0.291647,0.433629 -0.132442,0.0997597 -0.298692,0.148979 -0.498309,0.148979 -0.315571,0 -0.548899,-0.111111 -0.700618,-0.334555 -0.119624,-0.178628 -0.179704,-0.404616 -0.179704,-0.676693 0,-0.325699 0.0788195,-0.580749 0.236312,-0.765053 0.156905,-0.184304 0.355886,-0.27648 0.59621,-0.27648 0.270119,0 0.483044,0.0965795 0.639411,0.289739 0.15578,0.193159 0.230392,0.488573 0.223982,0.886878l-1.20348 0c0.00347373,0.154018 0.0419783,0.273985 0.116052,0.359164 0.0741226,0.0858648 0.166837,0.128773 0.277116,0.128773 0.0752479,0 0.138264,-0.0220655 0.189636,-0.0662455 0.0513232,-0.044816 0.0904638,-0.11615 0.116101,-0.214638zm0.0274474 -0.52517c-0.00352266,-0.150887 -0.0391406,-0.265129 -0.107343,-0.34341 -0.0683004,-0.0782813 -0.151768,-0.117422 -0.249766,-0.117422 -0.104995,0 -0.191349,0.0416848 -0.2596,0.124369 -0.0682515,0.0820486 -0.102108,0.194431 -0.100934,0.336463l0.717644 0zm0.699443 0.589556l0.48187 -0.0795534c0.020451,0.101032 0.0618422,0.178041 0.124859,0.230441 0.0624293,0.0523506 0.149909,0.0788684 0.263123,0.0788684 0.124272,0 0.217622,-0.0246097 0.280051,-0.0744651 0.0425655,-0.0341013 0.0635546,-0.0808254 0.0635546,-0.138264 0,-0.0397278 -0.0116443,-0.072557 -0.0343948,-0.0984387 -0.0239247,-0.0246586 -0.0775963,-0.0473602 -0.160428,-0.0682026 -0.387395,-0.0921273 -0.633002,-0.17672 -0.736823,-0.253093 -0.143499,-0.106071 -0.215274,-0.253778 -0.215274,-0.442534 0,-0.169773 0.0618422,-0.313076 0.186114,-0.42859 0.124223,-0.11615 0.316746,-0.174225 0.57752,-0.174225 0.248543,0 0.433483,0.04418 0.554232,0.131268 0.120749,0.0877729 0.20358,0.217182 0.24913,0.388862l-0.45271 0.0902681c-0.0192768,-0.0763732 -0.05602,-0.135084 -0.110279,-0.175497 -0.0542587,-0.0409998 -0.131268,-0.0612062 -0.231664,-0.0612062 -0.126522,0 -0.216986,0.0189343 -0.271832,0.0574389 -0.0361562,0.0271538 -0.0542587,0.0624783 -0.0542587,0.105435 0,0.0372325 0.0157541,0.0681536 0.0478494,0.0940354 0.0432015,0.0347373 0.192523,0.0833206 0.448699,0.146435 0.255491,0.0624783 0.434021,0.139536 0.535493,0.231028 0.100347,0.0928123 0.150496,0.221585 0.150496,0.386318 0,0.1799 -0.0694257,0.335191 -0.208864,0.464599 -0.138803,0.129409 -0.344144,0.193795 -0.616612,0.193795 -0.247369,0 -0.442827,-0.0542587 -0.587452,-0.162874 -0.144087,-0.10793 -0.238024,-0.255637 -0.2824,-0.441849zm2.94793 -1.40324l0 0.414108 -0.327901 0 0 0.791571c0,0.16033 0.00293555,0.253729 0.00934483,0.280247 0.00640928,0.0265178 0.0204021,0.0479962 0.0426144,0.0656584 0.0222123,0.0170262 0.0496108,0.0258818 0.081119,0.0258818 0.0449139,0 0.109056,-0.0170262 0.193648,-0.0498554l0.040853 0.402708c-0.11204,0.0517635 -0.238024,0.0776453 -0.379811,0.0776453 -0.086354,0 -0.164537,-0.0157541 -0.233963,-0.0467241 -0.0694257,-0.0315571 -0.120162,-0.072557 -0.152844,-0.122461 -0.0326335,-0.0498554 -0.0548458,-0.117373 -0.0676644,-0.202602 -0.00993194,-0.059983 -0.015167,-0.182444 -0.015167,-0.366112l0 -0.855957 -0.220509 0 0 -0.414108 0.220509 0 0 -0.390721 0.48187 -0.302998 0 0.693719 0.327901 0zm0.692496 0.599048l-0.435782 -0.0852288c0.0489258,-0.189979 0.13298,-0.330151 0.252555,-0.421643 0.120211,-0.0909041 0.297567,-0.136992 0.533291,-0.136992 0.214638,0 0.373891,0.0277899 0.478886,0.0826846 0.104506,0.0548948 0.178579,0.124369 0.221145,0.208962 0.0426144,0.0845438 0.0641907,0.239198 0.0641907,0.465187l-0.00523506 0.606631c0,0.172317 0.0075835,0.299866 0.0232887,0.381915 0.0152159,0.0814125 0.0443757,0.169821 0.086403,0.263221l-0.47551 0c-0.0122315,-0.0347373 -0.0280345,-0.0858648 -0.046137,-0.153382 -0.00753457,-0.0309211 -0.0133567,-0.0511275 -0.0168794,-0.0612551 -0.0822443,0.0865008 -0.169773,0.150887 -0.263123,0.194431 -0.0933015,0.0429079 -0.193061,0.0643864 -0.29923,0.0643864 -0.186701,0 -0.33431,-0.0548948 -0.441653,-0.164097 -0.10793,-0.109838 -0.161602,-0.248739 -0.161602,-0.416652 0,-0.110474 0.0245118,-0.209549 0.0734866,-0.296686 0.0489747,-0.0870879 0.117862,-0.153382 0.205929,-0.199471 0.0880665,-0.0460881 0.21591,-0.0864519 0.382159,-0.121189 0.223982,-0.0454521 0.379762,-0.08836 0.466116,-0.127501l0 -0.0517635c0,-0.100347 -0.0227505,-0.171045 -0.0682515,-0.214001 -0.045501,-0.0422719 -0.131268,-0.0637503 -0.257888,-0.0637503 -0.085718,0 -0.152208,0.0182983 -0.200058,0.0549437 -0.0478494,0.0359605 -0.086354,0.0997108 -0.116101,0.191251zm0.642298 0.421643c-0.0612551,0.0221145 -0.158715,0.0486323 -0.292234,0.0795534 -0.133029,0.0309211 -0.21997,0.0612551 -0.261362,0.0902681 -0.0624293,0.0486323 -0.0939865,0.109202 -0.0939865,0.18308 0,0.073193 0.0250989,0.13572 0.0752968,0.188707 0.050149,0.0530356 0.113753,0.0795534 0.191349,0.0795534 0.0868922,0 0.169185,-0.0309211 0.247907,-0.0921762 0.0583685,-0.0466752 0.096286,-0.104163 0.114389,-0.172317 0.0128186,-0.04418 0.0186407,-0.128773 0.0186407,-0.253142l0 -0.103527zm-0.645772 -1.28518l-0.218845 0c-0.00117422,-0.0284259 -0.00176133,-0.0504914 -0.00176133,-0.0669305 0,-0.129409 0.0291598,-0.22912 0.0869901,-0.298545 0.0583196,-0.0694746 0.133029,-0.104163 0.224031,-0.104163 0.0396299,0 0.0770092,0.00440332 0.111404,0.0138949 0.0338077,0.00880665 0.096286,0.0353244 0.186701,0.0795044 0.091002,0.0435929 0.161602,0.0656584 0.212925,0.0656584 0.0367433,0 0.0670773,-0.0126229 0.0915891,-0.0372325 0.0245118,-0.0246097 0.0402659,-0.0662945 0.0466752,-0.123733l0.22227 0c-0.00112529,0.166005 -0.0297469,0.285335 -0.0863051,0.356669 -0.056069,0.0713338 -0.128968,0.107294 -0.217622,0.107294 -0.0391406,0 -0.0770581,-0.00440332 -0.114927,-0.0132589 -0.025686,-0.00694746 -0.091638,-0.0321932 -0.196046,-0.0757371 -0.105044,-0.0429079 -0.181417,-0.0643864 -0.229266,-0.0643864 -0.0361562,0 -0.0647778,0.0119868 -0.0851309,0.0359605 -0.0210381,0.0240226 -0.0315082,0.0656584 -0.0326824,0.125005zm1.48001 1.2183c0,-0.172317 0.0397278,-0.339594 0.117862,-0.501196 0.0787216,-0.160966 0.190224,-0.284699 0.334359,-0.369292 0.144038,-0.0852288 0.305052,-0.128137 0.482996,-0.128137 0.274229,0 0.499386,0.0965795 0.67498,0.289739 0.175644,0.193159 0.263123,0.43681 0.263123,0.731588 0,0.296686 -0.0886536,0.542881 -0.265471,0.738584 -0.177307,0.195654 -0.400115,0.29287 -0.669109,0.29287 -0.166837,0 -0.324965,-0.0404127 -0.476048,-0.121825 -0.151083,-0.0814125 -0.266107,-0.200743 -0.344829,-0.357892 -0.0781345,-0.157199 -0.117862,-0.34845 -0.117862,-0.574438zm0.492438 0.0277409c0,0.195067 0.0426144,0.344046 0.128332,0.447573 0.0851798,0.103527 0.190762,0.155291 0.316207,0.155291 0.125397,0 0.230441,-0.0517635 0.315033,-0.155291 0.0851798,-0.103527 0.127794,-0.253778 0.127794,-0.451341 0,-0.191887 -0.0426144,-0.34023 -0.127794,-0.443757 -0.0845927,-0.103527 -0.189636,-0.155291 -0.315033,-0.155291 -0.125446,0 -0.231028,0.0517635 -0.316207,0.155291 -0.085718,0.103527 -0.128332,0.253142 -0.128332,0.447524zm4.39417 0.982234l-0.445714 0 0 -0.288467c-0.0741226,0.112334 -0.161602,0.195654 -0.262536,0.250598 -0.100934,0.0548948 -0.202406,0.0820486 -0.30515,0.0820486 -0.208864,0 -0.387346,-0.0909041 -0.536129,-0.272712 -0.148147,-0.181759 -0.222808,-0.435538 -0.222808,-0.760601 0,-0.333332 0.0723613,-0.586425 0.216986,-0.759426 0.144674,-0.172953 0.327852,-0.260041 0.548996,-0.260041 0.202455,0 0.37805,0.0915402 0.526197,0.273936l0 -0.97651 0.480158 0 0 2.71117zm-1.28176 -1.02451c0,0.209598 0.0268603,0.361072 0.0805319,0.455108 0.0770092,0.135084 0.185527,0.203287 0.324378,0.203287 0.110866,0 0.204755,-0.0511275 0.282351,-0.152746 0.0770092,-0.101668 0.11615,-0.253778 0.11615,-0.455793 0,-0.225352 -0.0379664,-0.388177 -0.112676,-0.487301 -0.075199,-0.0991237 -0.171485,-0.148979 -0.289298,-0.148979 -0.113753,0 -0.208913,0.0492194 -0.285922,0.147071 -0.0770092,0.0978516 -0.115514,0.244287 -0.115514,0.439354zm1.64405 0.014531c0,-0.172317 0.0396788,-0.339594 0.117862,-0.501196 0.0787216,-0.160966 0.190175,-0.284699 0.33431,-0.369292 0.144087,-0.0852288 0.305052,-0.128137 0.482996,-0.128137 0.27418,0 0.499386,0.0965795 0.675029,0.289739 0.175595,0.193159 0.263123,0.43681 0.263123,0.731588 0,0.296686 -0.0887025,0.542881 -0.265471,0.738584 -0.177356,0.195654 -0.400213,0.29287 -0.669158,0.29287 -0.166837,0 -0.324965,-0.0404127 -0.475999,-0.121825 -0.151181,-0.0814125 -0.266107,-0.200743 -0.344829,-0.357892 -0.0781834,-0.157199 -0.117862,-0.34845 -0.117862,-0.574438zm0.492438 0.0277409c0,0.195067 0.0425655,0.344046 0.128283,0.447573 0.0852288,0.103527 0.190762,0.155291 0.316207,0.155291 0.125446,0 0.230441,-0.0517635 0.315033,-0.155291 0.0851798,-0.103527 0.127794,-0.253778 0.127794,-0.451341 0,-0.191887 -0.0426144,-0.34023 -0.127794,-0.443757 -0.0845927,-0.103527 -0.189588,-0.155291 -0.315033,-0.155291 -0.125446,0 -0.230979,0.0517635 -0.316207,0.155291 -0.085718,0.103527 -0.128283,0.253142 -0.128283,0.447524zm2.6305 -0.35662c0,-0.27648 0.0379664,-0.508143 0.114389,-0.695627 0.0571943,-0.137628 0.134791,-0.261949 0.233327,-0.371787 0.0985855,-0.109202 0.206516,-0.190664 0.323791,-0.243699 0.156318,-0.0719209 0.336071,-0.107294 0.540239,-0.107294 0.369292,0 0.66451,0.123733 0.886193,0.371787 0.221683,0.247467 0.3325,0.5921 0.3325,1.03336 0,0.438082 -0.11023,0.78022 -0.330151,1.02764 -0.219922,0.246831 -0.514015,0.370564 -0.881496,0.370564 -0.372864,0 -0.669207,-0.123097 -0.889129,-0.368656 -0.219922,-0.246195 -0.329662,-0.585153 -0.329662,-1.01629zm0.521011 -0.0182983c0,0.306765 0.0659031,0.539701 0.196584,0.698122 0.131268,0.158471 0.297567,0.237339 0.499435,0.237339 0.201232,0 0.366895,-0.0782324 0.49645,-0.236067 0.128968,-0.15715 0.193697,-0.39263 0.193697,-0.706978 0,-0.310581 -0.0629675,-0.542245 -0.188462,-0.695627 -0.126033,-0.152746 -0.293457,-0.229168 -0.501685,-0.229168 -0.208864,0 -0.376924,0.0776453 -0.50467,0.2323 -0.127207,0.154654 -0.191349,0.38759 -0.191349,0.700079zm2.76069 1.35715l-0.480158 0 0 -1.96378 0.445665 0 0 0.279024c0.0764221,-0.131953 0.14531,-0.219041 0.205978,-0.260726 0.0612062,-0.0416359 0.130094,-0.0631143 0.207739,-0.0631143 0.109643,0 0.214638,0.0328292 0.316159,0.0984876l-0.148734 0.452564c-0.0805319,-0.0561668 -0.15578,-0.0845927 -0.225254,-0.0845927 -0.0676644,0 -0.124272,0.0195703 -0.170947,0.059983 -0.0472623,0.0397767 -0.0834185,0.112383 -0.11023,0.217133 -0.0268603,0.104799 -0.040217,0.324476 -0.040217,0.658395l0 0.606631zm2.48524 -1.38303l-0.473749 0.0921273c-0.0157541,-0.102255 -0.0519103,-0.179264 -0.108469,-0.231028 -0.0566072,-0.0517635 -0.129556,-0.0776453 -0.219334,-0.0776453 -0.120211,0 -0.215274,0.044816 -0.286461,0.133861 -0.071187,0.0896321 -0.106756,0.239198 -0.106756,0.448796 0,0.232936 0.0362051,0.397669 0.108469,0.493612 0.0723613,0.0959435 0.169185,0.14394 0.291109,0.14394 0.0915891,0 0.165712,-0.0277899 0.224031,-0.0839567 0.0583196,-0.0561668 0.0991726,-0.152746 0.123097,-0.289103l0.471987 0.0864519c-0.0490237,0.234208 -0.143499,0.411564 -0.282351,0.530894 -0.138851,0.119917 -0.324965,0.179264 -0.558928,0.179264 -0.265423,0 -0.477222,-0.0902681 -0.634714,-0.27144 -0.158128,-0.181172 -0.23685,-0.432406 -0.23685,-0.753066 0,-0.32384 0.0793087,-0.576297 0.237437,-0.756833 0.158666,-0.181172 0.372766,-0.27144 0.642885,-0.27144 0.221145,0 0.39669,0.0517635 0.52742,0.154654 0.130094,0.102891 0.223982,0.260041 0.281177,0.470911zm-1.29458 2.12852l0 -0.218405c0.117911,0.0132589 0.225254,0.0202064 0.323204,0.0202064 0.101521,0 0.176769,-0.0195703 0.225793,-0.059347 0.0373304,-0.029013 0.05602,-0.0675176 0.05602,-0.114242 0,-0.0422719 -0.0175154,-0.0782813 -0.0524974,-0.109202 -0.0355691,-0.0309211 -0.0904149,-0.0460881 -0.164537,-0.0460881 -0.0729484,0 -0.147609,0.0119868 -0.223395,0.0365965l0.0442779 -0.183031c0.0887025,-0.0328292 0.184352,-0.0498554 0.287048,-0.0498554 0.142325,0 0.250843,0.0340524 0.324916,0.101619 0.0741226,0.0681536 0.110866,0.150838 0.110866,0.248054 0,0.108566 -0.040853,0.196339 -0.123097,0.264493 -0.110279,0.0921762 -0.268945,0.1389 -0.474874,0.1389 -0.147022,0 -0.258426,-0.0101276 -0.333723,-0.029698zm2.01741 -2.11022l-0.435782 -0.0852288c0.0489747,-0.189979 0.13298,-0.330151 0.252555,-0.421643 0.12026,-0.0909041 0.297567,-0.136992 0.533291,-0.136992 0.214686,0 0.37394,0.0277899 0.478935,0.0826846 0.104457,0.0548948 0.17853,0.124369 0.221145,0.208962 0.0425655,0.0845438 0.0641417,0.239198 0.0641417,0.465187l-0.00523506 0.606631c0,0.172317 0.0075835,0.299866 0.0233376,0.381915 0.015167,0.0814125 0.0443268,0.169821 0.086354,0.263221l-0.47551 0c-0.0122315,-0.0347373 -0.0280345,-0.0858648 -0.0460881,-0.153382 -0.0075835,-0.0309211 -0.0134057,-0.0511275 -0.0169283,-0.0612551 -0.0822443,0.0865008 -0.169724,0.150887 -0.263123,0.194431 -0.0933015,0.0429079 -0.193061,0.0643864 -0.29923,0.0643864 -0.186701,0 -0.33431,-0.0548948 -0.441653,-0.164097 -0.10793,-0.109838 -0.161602,-0.248739 -0.161602,-0.416652 0,-0.110474 0.0245118,-0.209549 0.0735355,-0.296686 0.0489747,-0.0870879 0.117813,-0.153382 0.20588,-0.199471 0.0881643,-0.0460881 0.21591,-0.0864519 0.382159,-0.121189 0.224031,-0.0454521 0.379762,-0.08836 0.466165,-0.127501l0 -0.0517635c0,-0.100347 -0.0227994,-0.171045 -0.0683004,-0.214001 -0.045501,-0.0422719 -0.131268,-0.0637503 -0.257839,-0.0637503 -0.0857669,0 -0.152257,0.0182983 -0.200107,0.0549437 -0.0478494,0.0359605 -0.086354,0.0997108 -0.116101,0.191251zm0.642347 0.421643c-0.061304,0.0221145 -0.158715,0.0486323 -0.292283,0.0795534 -0.133029,0.0309211 -0.219922,0.0612551 -0.261362,0.0902681 -0.0624293,0.0486323 -0.0939375,0.109202 -0.0939375,0.18308 0,0.073193 0.0250989,0.13572 0.0752479,0.188707 0.050149,0.0530356 0.113801,0.0795534 0.191398,0.0795534 0.0868922,0 0.169137,-0.0309211 0.247907,-0.0921762 0.0583196,-0.0466752 0.0962371,-0.104163 0.11434,-0.172317 0.0128186,-0.04418 0.0186897,-0.128773 0.0186897,-0.253142l0 -0.103527zm0.909482 -1.02069l0.442779 0 0 0.267624c0.158128,-0.208277 0.347129,-0.31244 0.565876,-0.31244 0.116199,0 0.217084,0.0258818 0.302264,0.0776453 0.0857669,0.0517635 0.155731,0.130045 0.210577,0.234795 0.0793577,-0.10475 0.165663,-0.183031 0.257888,-0.234795 0.0921273,-0.0517635 0.190811,-0.0776453 0.295805,-0.0776453 0.133029,0 0.246195,0.029649 0.338322,0.08836 0.0922251,0.0580749 0.161015,0.144576 0.206565,0.257545 0.0332206,0.0839567 0.0495618,0.219677 0.0495618,0.407161l0 1.25553 -0.480109 0 0 -1.12236c0,-0.195018 -0.0163412,-0.32066 -0.0496108,-0.377463 -0.0443268,-0.073878 -0.112578,-0.111111 -0.204755,-0.111111 -0.0677133,0 -0.130681,0.0221145 -0.190224,0.0669305 -0.0589067,0.04418 -0.101472,0.109202 -0.127745,0.195018 -0.0262242,0.0858648 -0.0396788,0.220949 -0.0396788,0.405888l0 0.943094 -0.48006 0 0 -1.07627c0,-0.191251 -0.00880665,-0.314348 -0.025686,-0.369879 -0.0169283,-0.0555797 -0.0437886,-0.0965795 -0.0794066,-0.123733 -0.0362051,-0.0271538 -0.0845927,-0.0410488 -0.146435,-0.0410488 -0.0740737,0 -0.140613,0.0214784 -0.199519,0.0650224 -0.0594938,0.0429079 -0.102108,0.105435 -0.127745,0.186848 -0.025686,0.0814125 -0.0385046,0.215861 -0.0385046,0.404616l0 0.954445 -0.480158 0 0 -1.96378zm4.1993 1.33885l0.479033 0.0865008c-0.0619401,0.189979 -0.158764,0.334555 -0.291745,0.433629 -0.132442,0.0997597 -0.298692,0.148979 -0.498211,0.148979 -0.31562,0 -0.548996,-0.111111 -0.700666,-0.334555 -0.119624,-0.178628 -0.179704,-0.404616 -0.179704,-0.676693 0,-0.325699 0.0787705,-0.580749 0.236312,-0.765053 0.156905,-0.184304 0.355837,-0.27648 0.596259,-0.27648 0.27007,0 0.482996,0.0965795 0.639314,0.289739 0.15578,0.193159 0.230489,0.488573 0.22408,0.886878l-1.20357 0c0.00347373,0.154018 0.0420273,0.273985 0.116052,0.359164 0.0741226,0.0858648 0.166935,0.128773 0.277214,0.128773 0.075199,0 0.138215,-0.0220655 0.189588,-0.0662455 0.0513232,-0.044816 0.0904149,-0.11615 0.116052,-0.214638zm0.0274474 -0.52517c-0.00352266,-0.150887 -0.0390917,-0.265129 -0.107343,-0.34341 -0.0682515,-0.0782813 -0.151719,-0.117422 -0.249668,-0.117422 -0.105044,0 -0.191398,0.0416848 -0.259698,0.124369 -0.0682026,0.0820486 -0.102059,0.194431 -0.100885,0.336463l0.717595 0zm2.51968 1.1501l-0.480158 0 0 -1.00239c0,-0.212093 -0.0104701,-0.349086 -0.0309211,-0.411564 -0.0204021,-0.0618911 -0.0542587,-0.110474 -0.100347,-0.145212 -0.0460392,-0.0341013 -0.101472,-0.0517635 -0.16625,-0.0517635 -0.0834185,0 -0.158079,0.0246097 -0.223982,0.073878 -0.065952,0.0498554 -0.111453,0.114878 -0.135916,0.19629 -0.0245118,0.0814615 -0.0367433,0.231664 -0.0367433,0.451341l0 0.889422 -0.480207 0 0 -1.96378 0.445665 0 0 0.288467c0.158764,-0.222172 0.358284,-0.333283 0.598607,-0.333283 0.105582,0 0.203042,0.0208424 0.290521,0.0618422 0.0875283,0.0416848 0.154067,0.0940843 0.198981,0.158471 0.0449139,0.0643864 0.0764221,0.136943 0.0939375,0.218405 0.0181025,0.0814125 0.0268113,0.197562 0.0268113,0.349086l0 1.2208zm1.31904 -1.96378l0 0.414108 -0.327852 0 0 0.791571c0,0.16033 0.00293555,0.253729 0.00939375,0.280247 0.00636035,0.0265178 0.0204021,0.0479962 0.0425165,0.0656584 0.0222123,0.0170262 0.0496108,0.0258818 0.081119,0.0258818 0.0449139,0 0.109056,-0.0170262 0.193648,-0.0498554l0.040853 0.402708c-0.111991,0.0517635 -0.238024,0.0776453 -0.379762,0.0776453 -0.0863051,0 -0.164489,-0.0157541 -0.233963,-0.0467241 -0.0693768,-0.0315571 -0.120113,-0.072557 -0.152844,-0.122461 -0.0326824,-0.0498554 -0.0548458,-0.117373 -0.0677133,-0.202602 -0.00988301,-0.059983 -0.0151181,-0.182444 -0.0151181,-0.366112l0 -0.855957 -0.220509 0 0 -0.414108 0.220509 0 0 -0.390721 0.48187 -0.302998 0 0.693719 0.327852 0z"/>
   <path id="_215206480" class="fil2" d="M58.4369 16.5815c0,-0.172317 0.0396788,-0.339594 0.117862,-0.501196 0.0787216,-0.160966 0.190175,-0.284699 0.334261,-0.369292 0.144087,-0.0852288 0.305101,-0.128137 0.483044,-0.128137 0.27418,0 0.499386,0.0965795 0.67498,0.289739 0.175693,0.193159 0.263172,0.43681 0.263172,0.731588 0,0.296686 -0.0887025,0.542881 -0.26552,0.738584 -0.177356,0.195654 -0.400164,0.29287 -0.669109,0.29287 -0.166886,0 -0.325014,-0.0404127 -0.476048,-0.121825 -0.151132,-0.0814125 -0.266059,-0.200743 -0.34478,-0.357892 -0.0781834,-0.157199 -0.117862,-0.34845 -0.117862,-0.574438zm0.492389 0.0277409c0,0.195067 0.0425655,0.344046 0.128332,0.447573 0.0851798,0.103527 0.190762,0.155291 0.316207,0.155291 0.125446,0 0.230441,-0.0517635 0.315033,-0.155291 0.0851798,-0.103527 0.127794,-0.253778 0.127794,-0.451341 0,-0.191887 -0.0426144,-0.34023 -0.127794,-0.443757 -0.0845927,-0.103527 -0.189588,-0.155291 -0.315033,-0.155291 -0.125446,0 -0.231028,0.0517635 -0.316207,0.155291 -0.0857669,0.103527 -0.128332,0.253142 -0.128332,0.447524zm2.71749 0.982234l0 -2.71117 0.505844 0 0 2.71117 -0.505844 0zm0.948622 -1.96378l0.442779 0 0 0.267624c0.158128,-0.208277 0.347129,-0.31244 0.565876,-0.31244 0.116101,0 0.217035,0.0258818 0.302264,0.0776453 0.085718,0.0517635 0.155731,0.130045 0.210577,0.234795 0.0793577,-0.10475 0.165663,-0.183031 0.257888,-0.234795 0.0921273,-0.0517635 0.190762,-0.0776453 0.295708,-0.0776453 0.133078,0 0.246293,0.029649 0.33842,0.08836 0.0921762,0.0580749 0.161015,0.144576 0.206565,0.257545 0.0332206,0.0839567 0.0495129,0.219677 0.0495129,0.407161l0 1.25553 -0.48006 0 0 -1.12236c0,-0.195018 -0.0163412,-0.32066 -0.0496108,-0.377463 -0.0443757,-0.073878 -0.112627,-0.111111 -0.204803,-0.111111 -0.0676644,0 -0.130681,0.0221145 -0.190175,0.0669305 -0.0589067,0.04418 -0.101472,0.109202 -0.127745,0.195018 -0.0262242,0.0858648 -0.0396788,0.220949 -0.0396788,0.405888l0 0.943094 -0.480158 0 0 -1.07627c0,-0.191251 -0.00875772,-0.314348 -0.025686,-0.369879 -0.0168794,-0.0555797 -0.0437397,-0.0965795 -0.0793087,-0.123733 -0.0362051,-0.0271538 -0.0846416,-0.0410488 -0.146435,-0.0410488 -0.0741226,0 -0.140613,0.0214784 -0.199519,0.0650224 -0.0594938,0.0429079 -0.102108,0.105435 -0.127745,0.186848 -0.025686,0.0814125 -0.0385046,0.215861 -0.0385046,0.404616l0 0.954445 -0.480158 0 0 -1.96378zm3.13463 0l0.448014 0 0 0.288467c0.0577325,-0.0991237 0.136503,-0.179264 0.235676,-0.240519 0.0991726,-0.0618422 0.209451,-0.0927633 0.330249,-0.0927633 0.210577,0 0.389645,0.0896321 0.536129,0.26826 0.146973,0.178628 0.220558,0.428003 0.220558,0.747391 0,0.327607 -0.0741715,0.582657 -0.221732,0.764417 -0.148196,0.181808 -0.327852,0.272712 -0.538477,0.272712 -0.100347,0 -0.1913,-0.0214784 -0.273055,-0.0643864 -0.0810701,-0.043544 -0.166837,-0.117422 -0.257301,-0.222172l0 0.989769 -0.48006 0 0 -2.71117zm0.475412 0.948769c0,0.220264 0.0402659,0.383774 0.121385,0.488573 0.080483,0.105386 0.179068,0.158422 0.295757,0.158422 0.111453,0 0.204216,-0.0485833 0.27829,-0.145163 0.0740737,-0.0965795 0.111453,-0.255686 0.111453,-0.47595 0,-0.206418 -0.0385535,-0.359213 -0.114927,-0.458924 -0.0764221,-0.0997597 -0.170947,-0.149615 -0.283525,-0.149615 -0.117324,0 -0.214735,0.0485833 -0.292332,0.147071 -0.0775963,0.0978516 -0.116101,0.243014 -0.116101,0.435586zm1.56528 0.00503936c0,-0.172317 0.0396788,-0.339594 0.117862,-0.501196 0.0787216,-0.160966 0.190175,-0.284699 0.334261,-0.369292 0.144135,-0.0852288 0.30515,-0.128137 0.483044,-0.128137 0.27418,0 0.499386,0.0965795 0.675029,0.289739 0.175644,0.193159 0.263123,0.43681 0.263123,0.731588 0,0.296686 -0.0886536,0.542881 -0.265471,0.738584 -0.177356,0.195654 -0.400213,0.29287 -0.669158,0.29287 -0.166837,0 -0.324965,-0.0404127 -0.476048,-0.121825 -0.151132,-0.0814125 -0.266059,-0.200743 -0.34478,-0.357892 -0.0781834,-0.157199 -0.117862,-0.34845 -0.117862,-0.574438zm0.492389 0.0277409c0,0.195067 0.0425655,0.344046 0.128381,0.447573 0.0851798,0.103527 0.190762,0.155291 0.316159,0.155291 0.125446,0 0.230441,-0.0517635 0.315033,-0.155291 0.0851798,-0.103527 0.127794,-0.253778 0.127794,-0.451341 0,-0.191887 -0.0426144,-0.34023 -0.127794,-0.443757 -0.0845927,-0.103527 -0.189588,-0.155291 -0.315033,-0.155291 -0.125397,0 -0.230979,0.0517635 -0.316159,0.155291 -0.0858159,0.103527 -0.128381,0.253142 -0.128381,0.447524zm1.58798 0.421692l0.481919 -0.0795534c0.020451,0.101032 0.0618911,0.178041 0.124859,0.230441 0.0624293,0.0523506 0.149909,0.0788684 0.263123,0.0788684 0.124223,0 0.217622,-0.0246097 0.280002,-0.0744651 0.0425655,-0.0341013 0.0636035,-0.0808254 0.0636035,-0.138264 0,-0.0397278 -0.0116933,-0.072557 -0.0344438,-0.0984387 -0.0239247,-0.0246586 -0.0775963,-0.0473602 -0.160428,-0.0682026 -0.387346,-0.0921273 -0.632953,-0.17672 -0.736823,-0.253093 -0.143499,-0.106071 -0.215274,-0.253778 -0.215274,-0.442534 0,-0.169773 0.0618422,-0.313076 0.186114,-0.42859 0.124272,-0.11615 0.316795,-0.174225 0.577569,-0.174225 0.248494,0 0.433483,0.04418 0.554232,0.131268 0.120749,0.0877729 0.20358,0.217182 0.24913,0.388862l-0.452759 0.0902681c-0.0192768,-0.0763732 -0.05602,-0.135084 -0.110279,-0.175497 -0.0542587,-0.0409998 -0.131268,-0.0612062 -0.231615,-0.0612062 -0.126522,0 -0.216986,0.0189343 -0.271832,0.0574389 -0.0361562,0.0271538 -0.0542587,0.0624783 -0.0542587,0.105435 0,0.0372325 0.0157541,0.0681536 0.0478494,0.0940354 0.0432015,0.0347373 0.192523,0.0833206 0.44865,0.146435 0.255539,0.0624783 0.43407,0.139536 0.535542,0.231028 0.100347,0.0928123 0.150496,0.221585 0.150496,0.386318 0,0.1799 -0.0694257,0.335191 -0.208864,0.464599 -0.138803,0.129409 -0.344193,0.193795 -0.616612,0.193795 -0.247369,0 -0.442827,-0.0542587 -0.587501,-0.162874 -0.144087,-0.10793 -0.238024,-0.255637 -0.2824,-0.441849zm2.11604 -1.66964l0 -0.48099 0.480109 0 0 0.48099 -0.480109 0zm0 2.23019l0 -1.96378 0.480109 0 0 1.96378 -0.480109 0zm1.80448 -1.96378l0 0.414108 -0.327901 0 0 0.791571c0,0.16033 0.00293555,0.253729 0.00934483,0.280247 0.00640928,0.0265178 0.0204021,0.0479962 0.0425655,0.0656584 0.0222123,0.0170262 0.0496108,0.0258818 0.081119,0.0258818 0.044865,0 0.109056,-0.0170262 0.193648,-0.0498554l0.040853 0.402708c-0.11204,0.0517635 -0.238024,0.0776453 -0.379811,0.0776453 -0.0863051,0 -0.164489,-0.0157541 -0.233914,-0.0467241 -0.0694257,-0.0315571 -0.120162,-0.072557 -0.152844,-0.122461 -0.0326335,-0.0498554 -0.0548458,-0.117373 -0.0676644,-0.202602 -0.00993194,-0.059983 -0.015167,-0.182444 -0.015167,-0.366112l0 -0.855957 -0.220558 0 0 -0.414108 0.220558 0 0 -0.390721 0.48187 -0.302998 0 0.693719 0.327901 0zm0.333674 -0.266401l0 -0.48099 0.480109 0 0 0.48099 -0.480109 0zm0 2.23019l0 -1.96378 0.480109 0 0 1.96378 -0.480109 0zm1.47135 0l-0.731539 -1.96378 0.503985 0 0.341942 1.00239 0.0991237 0.334555c0.0262732,-0.0851798 0.0432015,-0.141396 0.0496108,-0.168549 0.0163412,-0.0555308 0.0332206,-0.111062 0.0513232,-0.166005l0.345367 -1.00239 0.494151 0 -0.721705 1.96378 -0.43226 0zm1.33656 -1.00998c0,-0.172317 0.0396788,-0.339594 0.117862,-0.501196 0.0787216,-0.160966 0.190175,-0.284699 0.334261,-0.369292 0.144135,-0.0852288 0.30515,-0.128137 0.483044,-0.128137 0.27418,0 0.499435,0.0965795 0.675029,0.289739 0.175644,0.193159 0.263123,0.43681 0.263123,0.731588 0,0.296686 -0.0886536,0.542881 -0.265471,0.738584 -0.177307,0.195654 -0.400213,0.29287 -0.669158,0.29287 -0.166837,0 -0.324965,-0.0404127 -0.476048,-0.121825 -0.151132,-0.0814125 -0.266059,-0.200743 -0.34478,-0.357892 -0.0781834,-0.157199 -0.117862,-0.34845 -0.117862,-0.574438zm0.492438 0.0277409c0,0.195067 0.0425655,0.344046 0.128332,0.447573 0.0851798,0.103527 0.190762,0.155291 0.316159,0.155291 0.125446,0 0.230441,-0.0517635 0.315033,-0.155291 0.0851798,-0.103527 0.127843,-0.253778 0.127843,-0.451341 0,-0.191887 -0.0426633,-0.34023 -0.127843,-0.443757 -0.0845927,-0.103527 -0.189588,-0.155291 -0.315033,-0.155291 -0.125397,0 -0.230979,0.0517635 -0.316159,0.155291 -0.0857669,0.103527 -0.128332,0.253142 -0.128332,0.447524z"/>
  </g>
 </g>
</svg>
