<?xml version="1.0" encoding="UTF-8"?>
<!DOCTYPE svg PUBLIC "-//W3C//DTD SVG 1.1//EN" "http://www.w3.org/Graphics/SVG/1.1/DTD/svg11.dtd">
<!-- Creator: CorelDRAW -->
<svg xmlns="http://www.w3.org/2000/svg" xml:space="preserve" width="494px" height="449px" style="shape-rendering:geometricPrecision; text-rendering:geometricPrecision; image-rendering:optimizeQuality; fill-rule:evenodd; clip-rule:evenodd"
viewBox="0 0 29.0551 26.4524"
 xmlns:xlink="http://www.w3.org/1999/xlink">
 <defs>
  <style type="text/css">
   <![CDATA[
    .fil0 {fill:#00AFEF;fill-rule:nonzero}
    .fil1 {fill:#5B9F91;fill-rule:nonzero}
   ]]>
  </style>
 </defs>
 <g id="Camada_x0020_1">
  <metadata id="CorelCorpID_0Corel-Layer"/>
  <polygon class="fil0" points="24.7255,9.29662 24.8089,13.6328 19.83,13.6231 19.7466,9.28688 15.417,9.2784 15.3218,4.32781 19.6513,4.33622 19.5679,0 24.5469,0.00973526 24.6303,4.34596 28.9599,4.35444 29.0551,9.30503 "/>
  <path class="fil1" d="M15.988 23.8506c-0.159797,0.114111 -0.496429,0.308121 -1.00996,0.58196 -0.513535,0.273909 -1.17546,0.564923 -1.98565,0.873044 -0.810252,0.308121 -1.74032,0.576258 -2.7902,0.80455 -1.04995,0.228222 -2.19113,0.342334 -3.42354,0.342334 -0.319595,0 -0.770337,-0.0399146 -1.35237,-0.119813 -0.58196,-0.0798987 -1.16399,-0.296717 -1.74595,-0.650455 -0.58203,-0.353807 -1.08416,-0.884449 -1.50639,-1.59199 -0.422232,-0.707545 -0.633348,-1.67752 -0.633348,-2.91001l0 -7.94265c0,-0.205414 0.0513187,-0.587662 0.154026,-1.14688 0.102707,-0.559152 0.38802,-1.14118 0.855938,-1.74602 0.467849,-0.604838 1.17539,-1.13548 2.12257,-1.59192 0.947171,-0.456514 2.26526,-0.684737 3.95419,-0.684737 1.66619,0 2.9614,0.205414 3.88576,0.616242 0.924363,0.410828 1.59763,0.890151 2.01993,1.4379 0.422232,0.547748 0.673263,1.10127 0.753162,1.66042 0.0798987,0.559221 0.119813,0.987156 0.119813,1.28387l0 5.95694 -8.86702 0 0 2.12263c0,0.159728 0.0741966,0.302419 0.22252,0.427934 0.148393,0.125515 0.405126,0.188308 0.770337,0.188308 0.159728,0 0.456445,-0.034282 0.890081,-0.102707 0.433706,-0.0684945 0.941539,-0.176904 1.5235,-0.325297 0.58203,-0.148324 1.22108,-0.342334 1.91722,-0.58196 0.696071,-0.239627 1.39791,-0.542045 2.10546,-0.907257l2.01993 4.00557zm-5.54618 -10.1337c0,-0.0684945 -0.0114042,-0.159797 -0.0342125,-0.273909 -0.0228779,-0.114111 -0.0913028,-0.22252 -0.205414,-0.325227 -0.114111,-0.102707 -0.296717,-0.19401 -0.547817,-0.273909 -0.251031,-0.0798291 -0.593364,-0.119813 -1.02707,-0.119813 -0.479253,0 -0.861571,0.0456862 -1.14688,0.136989 -0.285243,0.0912333 -0.496359,0.19394 -0.633348,0.308121 -0.13692,0.114111 -0.22252,0.233924 -0.256733,0.35944 -0.034282,0.125515 -0.0513883,0.22252 -0.0513883,0.291015l0 1.02707 3.90287 0 0 -1.12978z"/>
 </g>
</svg>
